<svg xmlns="http://www.w3.org/2000/svg" enable-background="new 0 0 32 32" viewBox="0 0 32 32"><path d="M29,11c0-1.3889-0.5712-2.6454-1.4888-3.5524C26.4883,4.8478,23.9586,3,21,3h-4c-3.8599,0-7,3.1401-7,7H9c-1.6543,0-3,1.3457-3,3v8c0,1.5166,1.1348,2.7605,2.5978,2.9594C8.3992,23.9852,8.1965,24,8,24H7c-0.9229,0-2-0.2617-2-1c0-0.5522-0.4478-1-1-1s-1,0.4478-1,1c0,3.7944,3.2056,7,7,7h3c1.2061,0,3-0.7988,3-3v-2c0-0.5513,0.4487-1,1-1s1,0.4487,1,1v2c0,1.6543,1.3457,3,3,3s3-1.3457,3-3v-4c0-0.5513,0.4487-1,1-1s1,0.4487,1,1c0,0.5522,0.4478,1,1,1s1-0.4478,1-1v-9.0309C28.62,13.1364,29,12.1155,29,11z M27,11c0,1.6543-1.3457,3-3,3h-4c-1.6543,0-3-1.3457-3-3s1.3457-3,3-3h4C25.6543,8,27,9.3457,27,11z M8,21v-8c0-0.5513,0.4487-1,1-1h1v9v1H9C8.4487,22,8,21.5513,8,21z M25,20c-1.6543,0-3,1.3457-3,3v4c0,0.5513-0.4487,1-1,1s-1-0.4487-1-1v-2c0-1.6543-1.3457-3-3-3s-3,1.3457-3,3v2c0,0.8052-0.5503,0.9883-1,1h-3c-1.6261,0-3.0895-0.8332-4.0091-2.0778C6.3024,25.9709,6.6362,26,7,26h1c2.7632,0,4-1.5068,4-3v-2V11v-1c0-2.7568,2.2432-5,5-5h4c1.1193,0,2.1489,0.3755,2.9824,1H20c-2.7568,0-5,2.2432-5,5s2.2432,5,5,5h4c0.7118,0,1.3864-0.1545,2-0.4238v4.6081C25.6857,20.0722,25.3524,20,25,20z M24,10c0-0.5523,0.4477-1,1-1s1,0.4477,1,1c0,0.5522-0.4477,1-1,1S24,10.5522,24,10z M20,9h2c0.5522,0,1,0.4478,1,1s-0.4478,1-1,1h-2c-0.5522,0-1-0.4478-1-1S19.4478,9,20,9z"/></svg>