<?xml version="1.0" standalone="no"?>
<!DOCTYPE svg PUBLIC "-//W3C//DTD SVG 20010904//EN"
 "http://www.w3.org/TR/2001/REC-SVG-20010904/DTD/svg10.dtd">
<svg version="1.0" xmlns="http://www.w3.org/2000/svg"
 width="1100.000000pt" height="1100.000000pt" viewBox="0 0 1100.000000 1100.000000"
 preserveAspectRatio="xMidYMid meet">

<g transform="translate(0.000000,1100.000000) scale(0.100000,-0.100000)"
fill="#000000" stroke="none">
<path d="M6013 9513 c-13 -2 -23 -9 -23 -14 0 -12 2 -12 41 6 33 14 27 17 -18
8z"/>
<path d="M5882 9496 c-46 -6 -82 -13 -79 -16 3 -3 -22 -5 -56 -5 -37 0 -124
-15 -212 -37 -82 -20 -181 -40 -220 -45 -47 -5 -69 -12 -67 -20 1 -7 -5 -13
-14 -13 -9 0 -12 5 -8 12 5 8 -8 9 -52 4 -88 -11 -133 -12 -128 -5 7 12 -20
17 -43 8 -12 -5 -25 -4 -28 0 -7 12 -159 -41 -193 -66 -79 -58 -156 -103 -232
-136 -93 -41 -121 -45 -144 -22 -22 23 -53 18 -115 -17 -76 -43 -261 -230
-261 -264 0 -7 -7 -15 -16 -18 -10 -4 -13 -13 -9 -28 5 -18 4 -20 -4 -8 -10
13 -11 13 -12 0 -1 -8 0 -19 1 -25 1 -5 -2 -7 -6 -3 -4 4 -12 3 -19 -2 -6 -5
-72 -34 -147 -64 -74 -29 -160 -69 -190 -89 -73 -46 -169 -137 -161 -151 3 -6
3 -8 -2 -4 -11 11 -35 -11 -35 -31 0 -9 -12 -29 -26 -46 -27 -31 -23 -15 5 20
9 11 -11 -6 -44 -37 -33 -32 -70 -65 -82 -73 -29 -21 -163 -186 -163 -202 0
-13 18 -19 88 -26 58 -7 74 -21 61 -55 -10 -28 -5 -24 29 25 13 19 -10 -35
-33 -78 -8 -14 -17 -44 -21 -67 -4 -23 -10 -40 -14 -37 -4 3 -10 -10 -13 -28
-7 -45 -46 -179 -53 -186 -4 -3 -4 10 0 29 4 19 10 53 13 75 l5 40 -20 -25
c-11 -13 -18 -28 -16 -32 3 -4 0 -8 -5 -8 -6 0 -10 -3 -9 -7 0 -5 -7 -26 -16
-47 -16 -37 -17 -42 -1 -75 9 -20 29 -51 44 -69 l28 -32 32 50 c18 27 36 52
41 55 5 3 13 -14 18 -37 9 -37 10 -39 11 -13 2 61 35 280 43 283 4 2 8 11 9
20 0 10 5 4 11 -13 5 -16 9 -44 9 -62 -1 -17 3 -34 9 -38 8 -5 7 -12 -2 -23
-8 -10 -9 -13 -1 -9 15 9 11 -23 -22 -173 -26 -120 -31 -217 -15 -285 8 -36 7
-38 -6 -21 -8 11 -14 24 -14 30 0 5 -3 7 -6 4 -3 -3 0 -41 7 -85 10 -70 10
-82 -5 -112 -10 -18 -13 -30 -7 -27 7 5 9 -4 5 -26 -4 -18 -7 -35 -6 -38 0 -3
1 -41 2 -85 l2 -80 16 80 c9 44 16 99 16 123 1 23 4 42 8 42 4 0 17 33 29 72
12 40 29 78 39 85 10 7 24 29 30 49 7 20 18 48 26 62 8 15 14 33 14 40 0 15
16 16 26 1 8 -13 75 -5 103 13 15 9 22 8 36 -5 14 -15 15 -17 1 -17 -9 0 -16
5 -16 11 0 5 -5 7 -12 3 -7 -5 -5 -11 7 -21 11 -7 13 -13 6 -13 -7 0 -9 -5 -6
-11 4 -5 0 -18 -8 -27 -22 -26 -28 -52 -17 -73 7 -13 7 -19 0 -19 -5 0 -10 -7
-10 -16 0 -10 -6 -14 -15 -10 -10 3 -15 -1 -15 -12 0 -10 -4 -22 -10 -28 -5
-5 -5 -15 -1 -23 7 -10 13 -11 31 -1 17 9 21 9 18 0 -2 -6 -8 -12 -13 -12 -19
-2 -34 -32 -24 -50 8 -14 6 -18 -8 -18 -14 0 -15 -2 -4 -9 11 -7 11 -9 0 -13
-9 -3 -7 -10 9 -26 25 -25 18 -30 -9 -6 -17 15 -18 15 -16 -5 1 -12 7 -21 13
-21 7 0 10 -8 7 -20 -3 -11 0 -20 6 -20 8 0 8 -4 -1 -14 -11 -12 -14 -11 -20
3 -6 14 -7 14 -7 -1 -1 -10 -7 -18 -15 -18 -8 0 -17 -4 -20 -9 -3 -5 0 -8 7
-7 6 0 12 -3 12 -9 0 -5 -7 -9 -15 -7 -13 2 -13 1 -1 -7 8 -5 21 -6 30 -3 9 3
3 -7 -12 -22 -16 -15 -25 -31 -22 -34 3 -4 10 0 14 7 6 9 11 10 15 3 4 -6 -2
-15 -11 -21 -14 -8 -15 -11 -3 -12 8 -1 19 -1 23 0 4 1 0 -13 -8 -30 -9 -17
-14 -37 -11 -44 3 -8 1 -15 -4 -17 -5 -2 -10 -16 -12 -33 -2 -16 -10 -35 -18
-42 -13 -11 -13 -12 3 -13 14 0 16 -4 7 -19 -5 -11 -10 -31 -10 -45 0 -14 -4
-27 -9 -30 -12 -8 -20 -55 -11 -61 5 -3 6 -14 3 -25 -3 -11 -8 -18 -12 -16 -3
2 -7 -7 -7 -20 -1 -13 2 -21 7 -18 5 3 9 1 9 -5 0 -5 -7 -14 -16 -19 -19 -11
-9 -62 12 -62 8 0 14 -10 14 -26 0 -14 -3 -23 -7 -21 -5 3 -14 -1 -21 -9 -7
-8 -9 -14 -3 -14 17 0 20 -27 6 -66 -12 -36 -12 -40 7 -50 14 -7 17 -14 9 -18
-6 -4 -11 -2 -11 5 0 7 -3 9 -7 5 -5 -4 1 -14 11 -22 17 -12 17 -14 3 -14 -10
0 -14 -5 -11 -15 4 -8 2 -15 -2 -15 -5 0 -10 -12 -11 -26 0 -15 -7 -30 -14
-35 -7 -4 -11 -10 -8 -14 10 -9 42 34 45 61 1 14 6 29 10 32 7 7 3 -19 -14
-105 -6 -28 -5 -46 2 -54 8 -9 8 -10 -2 -5 -14 8 -34 -33 -24 -49 4 -5 7 -17
7 -25 0 -9 7 -14 18 -12 22 4 22 -6 -5 -48 -26 -41 -33 -77 -12 -59 20 16 17
-1 -3 -24 -11 -12 -12 -17 -4 -12 11 7 13 -1 7 -41 -11 -85 -11 -89 2 -87 14
3 16 -9 3 -22 -13 -15 -23 -77 -11 -70 6 3 7 -1 4 -9 -3 -9 -11 -16 -18 -16
-6 0 -3 -5 6 -11 10 -5 15 -16 11 -25 -3 -9 0 -20 8 -25 11 -7 11 -9 -2 -9 -9
0 -20 -7 -23 -16 -5 -14 -4 -15 9 -4 12 10 15 10 15 -2 0 -8 -6 -20 -12 -27
-10 -11 -10 -13 0 -7 18 10 15 -8 -6 -35 -18 -23 -35 -69 -26 -69 3 0 10 13
15 30 6 16 15 27 21 24 6 -4 5 -10 -3 -15 -7 -4 -10 -11 -7 -15 4 -4 -2 -20
-13 -35 -11 -16 -17 -29 -13 -29 3 0 1 -7 -6 -15 -9 -10 -9 -15 -1 -15 10 0
15 13 12 33 0 4 4 7 9 7 14 0 12 -44 -2 -59 -7 -7 -8 -12 -3 -11 24 5 27 -1 9
-15 -11 -8 -14 -15 -6 -15 6 0 12 -8 12 -17 0 -15 -2 -16 -10 -3 -8 12 -10 10
-10 -8 0 -13 -4 -21 -9 -17 -6 3 -7 -10 -4 -32 7 -48 13 -55 13 -16 0 16 9 40
20 53 11 13 20 18 20 11 0 -7 -7 -20 -16 -28 -13 -13 -13 -17 -2 -24 10 -7 10
-9 1 -9 -7 0 -13 -9 -13 -21 0 -11 5 -17 10 -14 5 3 10 1 10 -5 0 -7 -7 -10
-15 -6 -10 3 -15 -1 -15 -14 0 -10 -4 -22 -10 -25 -5 -3 -10 -16 -9 -28 l0
-22 9 23 c5 12 14 22 20 22 5 0 1 -15 -10 -34 -14 -27 -16 -35 -6 -39 16 -7
28 -69 12 -64 -6 2 -10 16 -8 30 3 20 -1 27 -13 27 -9 0 -14 -4 -10 -9 3 -5
-3 -12 -12 -14 -15 -4 -15 -5 -2 -6 10 -1 22 -18 31 -46 8 -24 11 -42 5 -38
-5 3 -7 -3 -3 -15 4 -13 1 -22 -9 -26 -9 -3 -15 0 -15 9 0 19 -28 8 -60 -23
-14 -14 -18 -22 -10 -17 8 4 5 -3 -8 -17 -12 -13 -20 -27 -17 -30 7 -7 -15
-24 -42 -32 -20 -7 -23 -4 -23 23 0 16 4 32 9 35 4 3 7 76 5 163 -2 87 2 241
8 343 6 102 12 453 13 780 2 327 5 607 8 622 4 19 1 25 -7 22 -7 -3 -12 -17
-11 -32 1 -25 -2 -28 -32 -27 -18 1 -33 -2 -33 -7 0 -4 -3 -7 -7 -7 -20 3 -33
-2 -33 -12 0 -8 5 -8 15 1 12 10 15 10 15 -3 0 -9 8 -21 18 -27 15 -9 14 -10
-6 -5 -26 8 -44 -22 -21 -36 8 -5 9 -9 3 -9 -6 0 -23 -11 -38 -25 -14 -13 -27
-22 -27 -20 -1 3 -2 10 -3 15 0 6 -4 10 -8 10 -5 0 -12 0 -18 0 -5 0 -10 -5
-10 -11 0 -5 4 -8 9 -5 5 3 0 -11 -10 -31 -10 -20 -24 -40 -31 -45 -10 -6 -10
-8 0 -8 7 0 10 -5 7 -10 -4 -6 -11 -8 -16 -5 -5 4 -12 -1 -15 -9 -3 -9 -11
-16 -16 -16 -6 0 -8 7 -4 15 8 23 2 18 -24 -17 -13 -18 -17 -27 -9 -21 15 12
56 10 68 -3 3 -4 -6 -4 -21 -2 -28 5 -32 0 -29 -32 2 -13 1 -13 -8 0 -9 13
-12 12 -25 -5 -8 -11 -12 -23 -10 -27 3 -5 0 -8 -5 -8 -6 0 -11 -7 -11 -15 0
-9 -6 -18 -14 -21 -9 -4 -13 -15 -10 -31 4 -19 1 -24 -10 -20 -15 6 -32 -21
-20 -32 4 -3 9 0 11 7 8 22 20 12 15 -13 -2 -14 -9 -25 -14 -25 -5 0 -6 5 -3
10 3 6 1 10 -4 10 -11 0 -14 -11 -9 -27 2 -5 6 -7 9 -6 3 1 6 -4 6 -12 0 -8
-5 -11 -10 -8 -6 4 -8 -3 -5 -15 4 -12 3 -22 -1 -22 -4 0 -6 -14 -3 -30 2 -17
-1 -37 -8 -45 -8 -9 -8 -15 -2 -15 12 0 10 -26 -3 -37 -4 -4 -5 -2 -1 5 4 6 2
12 -3 12 -15 0 -14 -27 2 -33 7 -3 5 -6 -5 -6 -10 -1 -18 -5 -18 -10 0 -5 8
-12 18 -14 11 -3 7 -5 -9 -6 -24 -1 -27 -5 -27 -36 0 -34 10 -42 42 -36 5 1 2
-8 -6 -21 -9 -15 -12 -34 -8 -55 5 -23 3 -33 -6 -37 -8 -3 -14 0 -15 7 0 7 -4
3 -8 -8 -5 -11 -5 -24 -1 -30 5 -5 9 -13 9 -17 1 -5 3 -8 6 -8 3 0 10 0 15 0
6 0 10 10 9 23 0 19 -1 20 -8 4 -6 -17 -9 -17 -19 -4 -10 12 -9 16 8 20 26 7
33 -6 25 -43 -4 -18 -13 -30 -23 -31 -9 0 -12 -3 -5 -5 7 -4 9 -14 3 -34 -5
-18 -4 -32 3 -39 6 -6 7 -11 1 -11 -5 0 -9 -26 -9 -59 0 -45 3 -57 14 -53 11
4 11 1 2 -15 -11 -22 -11 -143 1 -143 4 0 5 28 3 62 -2 44 0 57 7 45 5 -10 15
-15 21 -11 7 3 4 -1 -5 -8 -10 -9 -13 -19 -9 -27 4 -7 6 -23 3 -37 -3 -15 0
-24 8 -24 7 0 2 -9 -11 -21 -22 -19 -22 -21 -4 -17 15 2 21 -3 22 -22 1 -14 0
-19 -3 -12 -11 23 -19 12 -18 -25 1 -21 -4 -42 -10 -46 -6 -5 0 -5 14 -2 17 4
21 3 11 -3 -11 -8 -11 -11 0 -16 8 -3 4 -3 -8 0 -13 3 -23 1 -23 -5 0 -5 -3
-17 -7 -26 -5 -15 -3 -16 15 -6 15 8 23 8 28 -1 4 -7 3 -8 -4 -4 -7 4 -12 2
-12 -3 0 -6 6 -11 13 -11 9 0 8 -3 -2 -9 -11 -7 -10 -13 4 -35 10 -14 15 -27
11 -27 -3 -1 -12 -2 -18 -3 -14 -1 -20 -73 -8 -91 12 -17 19 -55 10 -55 -4 0
-11 -7 -14 -16 -5 -14 -4 -15 9 -4 9 8 15 8 15 2 0 -6 -9 -14 -20 -17 -11 -3
-20 -10 -20 -15 0 -5 7 -7 15 -4 13 5 14 2 5 -20 -6 -17 -6 -35 0 -51 13 -33
18 -32 12 3 -2 15 -2 24 2 20 15 -13 13 -44 -6 -71 -14 -19 -15 -27 -6 -25 8
2 12 -5 10 -21 -1 -13 3 -31 10 -39 8 -10 8 -13 2 -9 -8 4 -13 -4 -16 -23 -5
-32 8 -42 14 -12 2 9 4 -5 4 -33 1 -27 -1 -41 -4 -30 -5 26 -22 44 -17 19 2
-11 4 -27 4 -37 1 -10 5 -16 10 -13 12 8 0 -48 -13 -56 -6 -5 -2 -8 10 -8 17
0 20 -5 16 -32 -4 -28 -6 -30 -13 -13 -7 18 -8 18 -8 2 -1 -10 -5 -15 -11 -12
-5 3 -10 1 -10 -4 0 -6 9 -11 20 -11 22 0 28 -25 8 -33 -10 -4 -10 -6 -1 -6
10 -1 10 -8 2 -29 -18 -44 -22 -92 -9 -107 15 -18 27 -19 33 -3 2 7 3 6 3 -2
-1 -9 -10 -14 -25 -12 -15 1 -21 -2 -18 -10 2 -7 13 -12 23 -11 18 1 18 1 0
-13 -14 -10 -16 -14 -5 -14 10 0 11 -2 2 -8 -13 -8 -12 -49 1 -70 5 -8 2 -10
-8 -6 -14 5 -17 -18 -4 -32 4 -3 4 -12 1 -20 -3 -8 1 -14 8 -14 9 0 10 -3 4
-8 -16 -11 -13 -66 4 -79 10 -8 11 -12 4 -13 -8 0 -11 -15 -10 -40 2 -22 -2
-40 -8 -40 -5 0 -3 -5 5 -10 8 -5 11 -10 6 -10 -5 0 -5 -5 0 -13 5 -6 9 -47 9
-89 0 -43 3 -78 8 -78 4 0 7 -6 7 -13 0 -18 27 -53 86 -113 62 -63 182 -124
308 -159 49 -14 93 -30 97 -36 5 -8 8 -8 14 1 11 17 85 390 85 428 0 30 2 32
33 31 17 -1 25 -3 15 -6 -17 -4 -33 -32 -23 -41 3 -3 5 0 5 6 0 7 8 12 18 12
14 0 15 -2 2 -10 -8 -5 -11 -10 -6 -10 5 0 3 -6 -3 -13 -6 -8 -8 -17 -4 -21 4
-4 1 -11 -7 -16 -12 -8 -12 -10 -1 -10 11 0 11 -3 1 -15 -6 -8 -9 -19 -5 -24
4 -7 -1 -8 -12 -4 -16 6 -17 5 -3 -12 11 -13 12 -19 3 -22 -7 -2 -9 -11 -6
-20 4 -11 3 -14 -6 -9 -8 6 -11 -2 -8 -28 3 -28 1 -36 -12 -36 -14 0 -14 -2
-1 -10 12 -8 13 -12 2 -19 -8 -4 -13 -11 -13 -15 1 -3 1 -7 0 -8 0 -2 -2 -20
-4 -40 -2 -20 -11 -50 -19 -67 -9 -16 -16 -38 -16 -49 0 -10 -4 -22 -9 -28 -5
-5 -23 -43 -40 -84 -16 -41 -34 -74 -40 -72 -7 1 -9 -7 -5 -22 3 -13 -2 -40
-10 -61 -26 -61 -21 -99 17 -132 17 -15 37 -39 44 -53 9 -20 12 -21 12 -7 1
12 7 17 19 15 12 -2 17 -13 17 -38 1 -19 -2 -39 -4 -45 -8 -15 -11 -35 -14
-77 -1 -20 -6 -35 -12 -35 -5 1 -9 -8 -8 -20 2 -13 -2 -23 -8 -23 -6 0 -9 -6
-6 -13 3 -8 -5 -39 -18 -70 -12 -32 -19 -57 -14 -57 4 0 0 -19 -10 -42 -10
-24 -16 -49 -14 -55 3 -7 -1 -13 -8 -13 -10 0 -10 -3 -1 -12 9 -9 8 -16 -5
-30 -10 -11 -12 -18 -4 -18 8 0 9 -5 2 -19 -6 -10 -7 -21 -4 -25 4 -3 -2 -12
-12 -19 -16 -12 -16 -14 -2 -20 14 -5 14 -9 1 -36 -8 -17 -19 -33 -25 -36 -5
-4 -9 -11 -9 -16 0 -6 4 -8 8 -5 5 3 9 -1 9 -9 0 -8 -4 -12 -8 -10 -3 3 -10
-24 -14 -60 -5 -52 -3 -72 13 -107 24 -53 71 -98 141 -134 47 -24 63 -27 146
-26 52 0 129 5 172 11 43 6 159 20 258 30 115 13 209 29 260 45 44 13 112 27
150 31 165 15 310 53 330 85 5 8 2 10 -11 7 -52 -16 -163 -40 -194 -42 -19 -2
-77 -6 -129 -10 -51 -4 -133 -8 -182 -8 -49 0 -89 -4 -89 -9 0 -5 -6 -6 -12
-1 -7 4 -36 8 -63 8 -28 1 -57 5 -64 10 -10 5 -12 4 -7 -3 4 -7 1 -12 -8 -12
-9 0 -16 4 -16 8 0 5 -26 8 -57 7 -57 -2 -101 10 -115 30 -4 5 -8 -1 -9 -15
-1 -17 -3 -20 -6 -7 -2 9 -9 14 -15 11 -6 -4 -20 4 -30 17 -11 13 -17 19 -14
13 7 -14 -21 -27 -29 -14 -4 6 -17 10 -31 10 -14 0 -36 11 -49 26 -15 16 -35
26 -51 27 -17 0 -22 2 -13 7 18 11 20 40 3 40 -8 0 -11 -6 -7 -18 5 -14 3 -15
-8 -4 -10 9 -10 15 -1 24 17 17 15 33 -3 18 -13 -11 -14 -10 -9 4 3 9 10 16
15 16 17 0 9 20 -8 21 -11 0 -13 3 -5 6 6 2 9 10 5 16 -4 6 0 8 10 4 16 -6 22
3 18 26 -1 4 7 10 16 14 10 4 21 11 25 17 3 5 25 10 47 11 74 3 81 5 81 21 0
8 5 12 10 9 6 -3 10 -2 10 3 0 16 30 9 31 -7 0 -9 3 -11 5 -5 3 6 16 9 29 6
14 -2 25 0 25 7 0 6 -8 8 -17 4 -14 -5 -15 -3 -6 7 9 10 18 8 43 -10 31 -22
32 -22 21 -2 -16 31 -13 34 10 11 14 -14 26 -18 42 -13 40 13 88 13 80 1 -4
-7 0 -6 10 1 9 8 21 11 27 7 5 -3 10 -2 10 3 0 5 13 7 30 4 17 -2 30 -9 30
-14 0 -5 8 -7 18 -4 9 3 71 -1 137 -8 66 -8 124 -12 129 -9 5 4 6 1 2 -5 -3
-6 -2 -13 4 -17 5 -3 10 -3 10 2 0 4 11 9 25 9 16 1 22 -2 18 -10 -4 -6 2 -4
12 4 10 8 16 10 13 5 -4 -6 13 -11 43 -12 28 -1 56 -7 64 -13 10 -8 14 -8 18
2 4 8 6 7 6 -4 1 -17 24 -23 79 -21 6 1 12 -5 12 -13 0 -7 6 -11 13 -8 7 2 18
32 24 65 12 62 42 115 98 174 23 25 42 34 81 39 77 10 85 24 95 163 18 249 75
366 219 453 91 55 124 66 245 79 55 7 144 19 198 28 109 17 126 16 347 -21
295 -50 482 -99 548 -142 13 -8 31 -34 41 -57 11 -25 33 -53 54 -67 43 -29 65
-66 72 -116 3 -22 7 -48 9 -59 2 -12 8 -48 12 -80 4 -33 9 -63 10 -67 1 -5 2
-13 3 -19 0 -5 5 -8 10 -5 10 7 9 -20 -2 -30 -4 -4 -2 -13 3 -19 11 -14 3 -45
-12 -45 -5 0 -6 -5 -3 -11 5 -6 11 -4 19 6 10 15 12 14 12 -4 0 -11 -3 -19 -6
-19 -18 2 -30 -3 -30 -13 0 -5 6 -7 13 -3 9 6 9 4 1 -7 -16 -21 -17 -93 0
-132 26 -63 105 -69 501 -37 132 10 276 26 320 34 44 7 112 17 150 21 129 13
439 61 480 75 24 7 17 8 -30 4 -33 -4 -121 -7 -196 -8 -74 -1 -140 -6 -147
-10 -7 -4 -17 -4 -23 0 -6 3 -42 8 -79 9 -38 2 -93 7 -122 11 -29 4 -57 7 -62
6 -4 -2 -33 7 -63 18 -30 11 -51 16 -48 10 10 -15 -18 -12 -43 6 -12 8 -27 12
-32 9 -6 -3 -10 -1 -10 5 0 7 -7 9 -16 6 -8 -3 -12 -2 -9 4 3 6 -1 10 -10 10
-9 0 -13 4 -10 10 3 6 -1 7 -9 4 -11 -4 -16 0 -16 10 0 9 -4 16 -10 16 -5 0
-10 5 -10 11 0 5 6 7 13 3 6 -4 4 2 -6 13 -9 11 -14 23 -10 28 5 4 -2 4 -14 1
-14 -5 -23 -3 -23 3 0 10 21 16 43 12 4 -1 3 8 -3 19 -6 11 -16 17 -22 14 -6
-4 -8 -3 -5 3 4 6 20 9 37 7 33 -4 40 9 13 24 -14 9 -14 10 5 16 12 4 26 4 32
1 5 -3 10 0 10 9 0 8 -6 17 -12 19 -7 3 7 4 32 2 25 -2 37 -1 27 2 -18 5 -18
5 0 26 14 18 13 17 -10 -2 -15 -14 -27 -19 -27 -12 0 7 -3 10 -8 7 -4 -2 -18
2 -32 10 -14 7 -21 13 -17 14 5 0 17 -5 28 -10 16 -9 19 -7 19 15 0 26 9 32
26 15 6 -6 19 -7 30 -3 17 6 17 8 -6 13 -14 3 -26 14 -28 24 -2 10 0 16 6 12
5 -3 20 3 32 14 13 11 30 20 39 20 14 0 14 2 1 10 -12 8 -11 10 6 10 28 0 36
10 21 28 -9 13 -9 14 1 8 6 -4 12 -2 12 3 0 6 3 10 8 10 4 -1 14 -1 22 0 13 1
13 2 0 12 -12 8 -8 10 16 7 22 -3 30 0 27 8 -2 6 6 19 19 28 12 9 18 16 13 16
-6 0 -2 5 8 11 9 5 17 17 17 26 0 9 6 13 15 9 8 -3 16 -1 16 4 1 6 2 14 3 19
2 13 55 61 67 61 6 0 17 7 25 15 9 8 25 15 37 16 161 4 194 9 182 30 -4 5 -2
9 3 9 26 0 92 70 130 138 42 75 43 77 31 122 -25 94 -105 218 -222 343 -45 48
-70 68 -83 65 -11 -2 -18 -10 -17 -16 2 -8 -11 -12 -36 -12 -22 0 -44 -6 -51
-15 -14 -17 -35 -21 -25 -5 3 5 1 10 -5 10 -6 0 -8 5 -4 12 5 7 3 8 -5 4 -14
-9 -51 20 -51 39 0 7 -7 18 -15 25 -14 12 -12 15 11 31 15 10 32 15 37 12 6
-4 7 5 3 21 -6 24 8 39 16 16 2 -6 8 -2 14 8 10 15 4 28 -42 83 -29 35 -54 71
-54 81 0 9 16 35 36 59 45 54 54 74 87 184 14 50 38 131 53 180 66 223 90 424
58 487 -9 17 -14 44 -12 59 3 17 0 29 -6 29 -6 0 -4 5 4 11 12 9 11 10 -5 5
-20 -6 -20 -6 -1 9 20 15 20 15 0 15 -15 0 -20 -7 -19 -30 0 -17 3 -30 7 -30
18 0 6 -21 -17 -30 -30 -11 -34 -24 -5 -15 11 3 20 2 20 -3 0 -23 -87 -30
-515 -38 -187 -3 -486 -9 -665 -13 -313 -8 -326 -7 -353 11 -22 16 -26 23 -16
34 10 12 9 13 -6 7 -14 -5 -17 -3 -12 10 4 11 2 14 -7 11 -8 -3 -12 -13 -9
-23 4 -16 0 -18 -24 -13 -25 5 -58 35 -58 54 0 3 -3 10 -7 14 -5 4 -8 0 -8 -8
0 -12 -6 -15 -22 -10 -20 5 -21 3 -10 -10 7 -9 21 -14 32 -11 12 3 20 0 20 -6
0 -7 -6 -11 -12 -10 -31 4 -48 -2 -48 -17 0 -8 -5 -12 -11 -9 -7 5 -5 13 6 25
16 18 16 19 -1 19 -30 0 -58 5 -69 14 -37 28 -88 57 -93 52 -3 -3 0 -5 6 -5 7
0 12 -4 12 -10 0 -5 -8 -7 -17 -4 -14 5 -15 4 -4 -4 8 -6 20 -8 28 -5 7 3 13
0 13 -5 0 -19 -17 -22 -45 -8 -15 8 -22 17 -16 21 18 10 12 23 -11 27 l-23 3
24 14 c13 7 21 9 17 3 -3 -5 6 -10 21 -9 15 0 29 -6 31 -12 4 -13 22 -15 22
-1 0 5 -16 17 -35 26 -32 15 -34 18 -18 29 10 7 21 11 25 9 4 -2 10 1 14 7 5
8 -1 10 -19 7 -15 -3 -24 -1 -21 4 3 5 3 21 -1 37 -5 22 -11 28 -25 24 -28 -7
-78 6 -61 16 9 6 7 10 -8 14 -26 6 -34 -2 -18 -22 11 -14 10 -14 -5 -3 -10 8
-16 19 -15 25 1 6 -7 12 -18 14 -11 1 -14 0 -7 -3 19 -9 14 -23 -8 -21 -11 1
-20 5 -20 9 0 4 -4 8 -10 8 -5 0 -10 -7 -10 -16 0 -8 -5 -12 -10 -9 -6 4 -17
2 -24 -4 -9 -8 -18 -7 -32 4 -19 14 -19 14 1 16 17 1 16 2 -5 9 -23 7 -23 8
-3 9 12 1 25 -3 28 -9 14 -22 31 -10 27 19 -3 24 0 29 25 36 19 5 23 9 13 13
-21 7 -39 35 -32 47 4 6 1 6 -9 0 -8 -6 -29 -10 -48 -9 -24 2 -30 0 -20 -7 8
-5 24 -9 35 -9 26 0 50 -25 34 -35 -9 -5 -13 0 -12 15 0 3 -13 5 -30 5 -32 0
-65 33 -41 42 7 2 9 11 6 19 -3 8 0 14 6 14 6 0 11 -7 11 -15 0 -12 5 -13 28
-4 30 12 32 12 50 -4 8 -6 24 -12 35 -14 17 -2 16 1 -8 14 -17 9 -25 18 -17
20 6 3 12 9 12 15 0 7 -4 7 -12 0 -18 -13 -108 8 -108 26 0 7 5 10 10 7 6 -4
17 -2 25 5 9 7 15 8 20 0 3 -5 1 -10 -6 -10 -7 0 -10 -3 -7 -6 4 -3 16 -1 27
6 12 6 21 7 21 1 0 -5 -6 -12 -12 -14 -10 -4 -10 -6 0 -6 28 -2 24 32 -8 62
-26 24 -34 27 -41 16 -6 -10 -9 -10 -9 -1 0 6 -12 12 -26 12 -14 0 -23 4 -20
9 6 10 -24 25 -32 16 -3 -3 1 -5 8 -5 7 0 10 -3 7 -6 -3 -4 -2 -15 3 -24 8
-15 6 -18 -15 -15 -14 1 -25 -2 -25 -6 0 -5 6 -9 14 -9 9 0 12 -7 9 -20 -6
-21 -18 -26 -27 -11 -4 5 0 12 6 14 9 4 8 6 -2 6 -8 1 -21 11 -29 24 -13 19
-12 21 1 10 15 -13 28 -8 28 9 0 5 -4 6 -10 3 -6 -4 -7 1 -3 12 6 16 5 16 -10
4 -12 -9 -17 -10 -17 -2 0 7 -4 10 -8 7 -5 -3 -9 1 -9 9 0 8 10 15 21 15 17 1
14 5 -13 19 -28 15 -31 19 -16 25 11 4 22 1 27 -6 5 -9 8 -10 8 -1 0 18 -18
25 -37 14 -13 -6 -26 -5 -43 4 -21 11 -26 11 -38 -4 -11 -14 -12 -13 -2 7 12
24 30 28 48 10 15 -15 16 0 2 36 -5 14 -6 26 -2 27 4 0 17 2 30 5 12 2 22 0
22 -4 0 -5 6 -9 13 -10 6 -1 24 -4 40 -8 21 -5 26 -3 22 7 -3 8 -15 15 -28 16
-12 1 -40 4 -62 6 -22 3 -51 0 -65 -5 -19 -7 -22 -7 -13 3 12 12 7 42 -6 35
-4 -3 -13 0 -21 6 -12 8 -12 9 2 5 9 -3 18 -1 20 5 3 7 13 3 27 -11 28 -28 35
-23 18 12 -13 29 -26 34 -44 16 -7 -7 -13 -7 -17 0 -4 5 3 15 15 21 18 10 19
13 5 23 -9 7 -18 31 -20 57 -3 37 -2 41 9 27 13 -18 31 -24 20 -7 -3 6 0 17 9
25 9 9 17 11 21 5 3 -5 1 -10 -5 -10 -6 0 -8 -4 -5 -10 3 -5 11 -10 16 -10 6
0 8 4 4 9 -3 5 -1 12 5 16 20 12 9 22 -20 19 -16 -2 -30 1 -30 7 0 6 -5 7 -10
4 -6 -3 -17 0 -25 7 -8 7 -22 19 -30 27 -9 7 -14 16 -10 19 3 4 10 0 15 -8 8
-12 10 -9 10 10 0 22 5 26 29 25 21 0 27 -3 20 -11 -15 -18 20 -39 57 -35 19
2 26 32 12 50 -7 9 2 3 20 -13 32 -29 34 -53 3 -41 -12 5 -13 4 -4 -6 10 -10
16 -9 28 1 14 11 18 11 25 1 5 -9 9 -10 14 -2 4 6 10 9 14 7 4 -2 16 2 27 10
16 12 17 14 2 14 -9 0 -17 -5 -17 -12 0 -9 -3 -8 -12 1 -11 11 -10 14 0 18 6
3 9 9 6 14 -9 15 -34 -10 -27 -28 5 -13 3 -13 -15 -2 -27 17 -36 39 -16 39 9
0 12 -5 8 -12 -5 -10 -4 -10 6 -1 18 17 4 31 -25 25 -14 -2 -25 0 -25 6 0 5
-9 12 -21 15 -15 4 -19 2 -15 -8 10 -26 -19 -5 -38 28 -11 17 -20 35 -20 39
-1 3 -4 10 -8 14 -5 4 -8 12 -8 18 0 6 6 4 13 -5 7 -8 20 -18 30 -22 15 -6 17
-3 12 13 -4 11 -2 20 3 20 9 0 22 -32 22 -53 0 -5 -9 -6 -19 -2 -16 5 -18 2
-14 -15 7 -25 19 -26 33 0 6 11 16 20 23 19 9 0 9 -2 -1 -6 -16 -6 -6 -23 14
-23 10 0 14 8 12 23 -2 16 -9 21 -23 19 -17 -2 -18 -1 -5 9 13 9 12 10 -2 5
-10 -3 -18 -1 -18 4 0 18 20 20 44 5 17 -11 26 -13 31 -5 4 6 14 9 22 6 8 -4
11 -1 8 5 -4 6 -13 8 -21 5 -7 -3 -16 -1 -19 4 -3 5 3 11 12 14 10 2 4 3 -14
1 -33 -3 -54 19 -27 29 9 3 13 10 9 16 -7 11 -44 -21 -37 -34 2 -4 -7 -1 -21
8 -16 11 -27 13 -30 6 -3 -6 -4 -5 -3 2 1 7 16 20 32 29 16 9 28 23 26 30 -3
10 2 9 15 -3 32 -29 82 -28 80 2 -1 11 -5 20 -10 20 -5 0 -7 -6 -4 -13 3 -8 0
-14 -7 -14 -15 0 -15 50 1 60 6 4 10 17 8 28 -4 18 -1 20 20 15 20 -5 25 -2
25 11 1 14 4 12 15 -7 14 -27 10 -44 -5 -20 -8 13 -10 12 -10 -2 0 -9 9 -19
19 -23 11 -3 22 -19 26 -35 5 -21 11 -27 22 -23 13 5 13 7 -1 15 -21 12 -21
42 0 34 9 -3 18 -6 20 -6 3 0 3 -4 -1 -9 -3 -6 4 -15 16 -21 12 -7 19 -8 15
-2 -3 6 -3 12 1 15 5 2 2 2 -4 1 -7 -2 -13 4 -13 12 0 11 9 15 28 14 49 -4 72
0 72 11 0 5 -4 7 -10 4 -5 -3 -10 -2 -10 3 0 5 -7 9 -15 9 -8 0 -12 -4 -9 -9
3 -4 -14 -8 -38 -8 -34 1 -39 3 -25 11 9 5 22 7 27 4 6 -3 10 -1 10 4 0 6 -4
11 -10 11 -5 0 -10 5 -10 10 0 14 37 13 42 -2 3 -7 11 -9 24 -3 17 7 17 8 2
12 -10 3 -18 8 -18 13 0 5 7 7 15 4 8 -3 28 -1 45 4 20 8 32 8 36 1 3 -6 14
-9 24 -6 9 2 25 0 34 -5 11 -6 16 -5 16 3 0 6 7 8 16 5 12 -4 14 -1 9 14 -4
13 -1 22 9 26 9 3 13 10 10 15 -3 5 -1 9 5 9 6 0 13 -10 16 -23 6 -24 36 -30
52 -12 5 4 2 5 -4 1 -8 -4 -13 -1 -13 8 0 9 -6 15 -12 13 -18 -3 -16 26 2 30
13 4 13 3 0 -6 -12 -8 -7 -11 20 -11 26 0 31 -3 20 -10 -13 -8 -13 -10 2 -10
9 0 18 -6 20 -12 3 -7 7 -2 10 10 4 12 2 20 -3 16 -5 -3 -9 2 -9 12 0 15 2 15
25 0 29 -19 67 -21 64 -3 -5 37 24 47 48 17 11 -13 12 -13 13 0 0 10 5 7 16
-8 8 -12 21 -22 27 -22 7 0 4 5 -5 11 -10 5 -18 14 -18 18 0 11 92 1 108 -11
7 -6 12 -7 12 -1 0 5 -11 16 -25 23 -14 7 -25 18 -25 23 0 5 7 3 16 -4 19 -16
44 -21 44 -8 0 5 -7 9 -17 9 -20 0 -9 13 15 16 9 2 20 -2 24 -9 6 -9 8 -9 8 1
0 7 5 10 10 7 6 -3 10 -1 10 4 0 13 22 10 33 -4 4 -6 13 -3 22 9 10 14 15 15
15 6 0 -10 3 -11 11 -3 6 6 23 8 45 3 21 -5 32 -4 28 2 -4 5 3 8 14 6 11 -2
29 5 41 16 17 15 23 16 36 6 12 -10 15 -10 15 4 0 13 4 15 18 7 13 -7 27 -6
46 5 16 7 32 11 37 8 5 -3 9 -1 9 3 0 8 23 11 110 16 19 2 41 6 48 11 7 4 24
5 37 2 14 -4 29 0 38 9 10 9 17 11 19 4 2 -6 15 -1 31 11 15 12 27 17 27 11 0
-6 7 -8 15 -5 8 4 12 11 8 18 -4 6 0 6 9 -2 11 -9 18 -10 23 -2 3 6 11 8 16 5
5 -4 9 -1 9 5 0 6 4 9 9 5 5 -3 12 -1 15 3 3 5 30 8 60 8 30 -1 52 2 49 7 -2
4 2 7 9 8 55 3 168 29 168 38 0 4 -24 4 -52 0 -73 -10 -138 -11 -138 0 0 4 35
9 78 10 112 3 204 16 238 35 33 18 84 62 84 72 0 4 -8 0 -17 -8 -10 -9 -35
-21 -55 -29 -20 -7 -35 -16 -32 -20 7 -12 -60 -22 -95 -14 -17 4 -31 3 -31 -2
0 -4 -51 -9 -113 -9 -61 -1 -249 -4 -417 -5 -168 -2 -295 -5 -282 -7 12 -2 22
-7 22 -11 0 -4 -20 -5 -45 -1 -25 4 -45 4 -45 1 0 -7 -21 -10 -125 -15 -44 -2
-168 -11 -275 -20 -440 -35 -397 -34 -627 -18 -135 10 -160 14 -222 41 -38 17
-76 31 -85 31 -9 0 -16 4 -16 8 0 4 -27 27 -60 50 -98 69 -199 211 -262 367
-20 50 -39 110 -43 135 -3 25 -8 59 -11 75 -4 23 -3 26 5 15 9 -13 11 -13 11
2 0 9 -5 20 -10 23 -6 4 -7 12 -3 18 4 7 8 35 9 62 1 28 4 64 8 80 3 17 9 42
12 58 3 15 10 27 14 27 5 0 7 7 4 15 -4 8 -2 15 3 15 5 0 10 7 10 14 0 21 44
105 73 139 25 29 86 89 170 167 l45 42 -45 -33 c-154 -113 -243 -214 -321
-365 -28 -55 -55 -104 -60 -110 -5 -6 -6 -14 -2 -17 3 -4 1 -7 -5 -7 -6 0 -9
-7 -6 -15 4 -9 0 -15 -9 -15 -8 0 -17 -7 -20 -14 -4 -10 -1 -13 9 -9 12 5 13
1 3 -20 -7 -15 -16 -24 -20 -21 -5 3 -9 -6 -9 -20 0 -14 5 -26 11 -26 8 0 8
-5 -1 -15 -10 -12 -10 -15 0 -15 10 0 10 -3 0 -15 -7 -8 -17 -12 -23 -8 -6 3
-7 1 -3 -6 4 -6 12 -8 18 -5 6 4 8 2 4 -4 -3 -6 -2 -13 4 -17 17 -10 2 -24
-20 -18 -14 4 -20 0 -20 -11 0 -9 5 -16 11 -16 5 0 7 -5 3 -11 -3 -6 -14 -9
-24 -6 -13 3 -17 0 -13 -9 4 -10 10 -11 23 -4 26 14 37 12 37 -5 0 -8 -4 -12
-9 -9 -4 3 -8 1 -8 -4 0 -5 10 -14 23 -21 l22 -11 -24 6 c-17 4 -22 2 -18 -7
2 -8 10 -13 16 -11 6 1 11 -2 11 -8 0 -15 -40 -12 -41 3 0 6 -5 1 -10 -12 -6
-17 -6 -28 1 -35 8 -8 9 -7 5 5 -4 10 0 16 9 16 20 0 30 -28 14 -39 -10 -5 -8
-8 5 -8 10 0 16 -4 12 -10 -3 -5 -13 -6 -22 -3 -11 5 -14 3 -9 -6 5 -8 18 -10
32 -7 22 6 23 4 13 -12 -6 -10 -22 -19 -36 -20 -13 -1 -22 2 -19 6 2 4 -4 8
-14 8 -10 0 -16 -6 -13 -13 3 -7 16 -13 29 -13 13 0 24 -6 24 -12 0 -10 3 -9
9 1 5 7 13 11 19 7 6 -3 13 -2 17 4 3 5 12 10 18 10 7 0 6 -4 -3 -10 -8 -5
-10 -10 -5 -10 6 0 3 -4 -5 -10 -9 -6 -17 -5 -22 3 -5 8 -8 6 -8 -6 0 -11 -4
-15 -12 -11 -7 5 -8 3 -3 -5 4 -7 16 -11 26 -8 27 7 45 -18 22 -32 -17 -10
-17 -10 0 -11 9 0 17 -5 17 -10 0 -6 -5 -9 -11 -8 -6 2 -14 -3 -17 -11 -3 -8
0 -11 7 -7 6 4 19 2 28 -4 16 -9 15 -10 -7 -7 -14 1 -31 6 -37 10 -17 11 -16
1 3 -28 9 -14 13 -25 9 -25 -12 0 -35 28 -35 44 0 9 -7 16 -15 16 -8 0 -15 5
-15 11 0 8 -6 7 -17 -2 -11 -10 -14 -10 -9 -1 4 7 2 12 -4 12 -8 0 -10 9 -5
28 6 24 5 25 -7 10 -10 -13 -17 -15 -28 -7 -13 9 -12 10 3 5 12 -4 17 0 17 13
0 11 3 26 6 35 3 9 1 16 -5 16 -6 0 -10 -3 -10 -7 3 -20 -2 -24 -17 -12 -13
10 -17 10 -24 0 -5 -9 -10 -10 -14 -3 -4 6 2 15 11 21 17 10 17 10 -1 11 -11
0 -17 3 -13 6 3 4 -1 13 -10 22 -14 14 -14 16 0 21 13 5 12 10 -9 28 -23 20
-24 21 -24 2 0 -10 -4 -19 -10 -19 -5 0 -7 7 -4 15 4 9 0 15 -10 15 -9 0 -16
5 -16 11 0 5 4 8 9 5 5 -4 16 -3 25 0 12 5 13 9 3 19 -9 9 -14 10 -20 1 -5 -8
-12 -6 -21 7 -11 14 -15 15 -19 5 -4 -9 -6 -9 -6 -1 -1 6 8 18 20 26 15 11 17
17 8 22 -7 5 -18 0 -26 -10 -15 -22 -17 -12 -3 15 8 15 7 18 -2 15 -17 -6 -45
12 -35 22 5 4 12 1 17 -7 7 -11 10 -12 10 -2 0 7 -7 20 -15 28 -8 8 -12 21 -9
29 8 20 -6 19 -23 -2 -13 -16 -13 -16 -4 3 6 12 8 24 5 27 -3 3 4 3 16 0 15
-4 20 -11 17 -24 -3 -11 2 -19 15 -22 16 -4 17 -3 7 9 -9 11 -9 14 0 14 7 0
10 4 7 9 -3 4 5 7 19 6 16 -2 22 1 19 10 -3 7 -13 11 -24 8 -10 -3 -21 0 -24
6 -4 7 1 11 12 11 14 0 20 7 20 24 0 33 -26 42 -33 13 -5 -17 -14 -22 -41 -24
-20 -1 -32 2 -28 8 3 5 0 16 -6 24 -10 12 -9 15 4 15 9 0 19 -7 22 -15 7 -17
34 -21 34 -5 0 6 -5 10 -11 10 -5 0 -7 5 -4 10 4 6 10 8 15 5 5 -3 11 -2 13 3
3 4 -6 12 -19 19 -13 6 -22 7 -18 2 8 -13 -10 -11 -25 4 -10 8 -12 8 -7 0 3
-6 3 -14 -2 -17 -4 -2 -9 6 -10 19 -1 16 3 23 11 19 7 -2 14 4 15 16 4 44 6
50 17 50 16 0 37 -25 28 -33 -3 -4 -1 -7 5 -7 6 0 18 -12 27 -27 l15 -28 -6
28 c-7 30 6 36 30 11 15 -14 16 -14 16 1 0 9 -12 18 -30 21 -16 4 -27 10 -24
15 3 5 0 9 -6 9 -7 0 -10 6 -7 13 2 7 -6 18 -20 24 -22 10 -23 10 -12 -4 11
-13 10 -15 -6 -11 -11 2 -26 -3 -33 -12 -10 -10 -11 -11 -6 -1 5 11 3 13 -9 8
-9 -3 -29 0 -44 8 -15 8 -22 15 -15 15 6 0 12 7 12 16 0 8 -4 13 -9 9 -6 -3
-9 4 -8 15 1 18 3 19 13 6 13 -19 25 -11 18 12 -3 10 1 7 8 -6 9 -18 9 -25 0
-31 -9 -5 -9 -12 1 -26 11 -14 16 -15 22 -5 6 9 4 11 -5 5 -8 -5 -11 -3 -8 6
3 8 11 13 17 11 14 -3 14 2 0 49 -11 34 -15 37 -40 34 -19 -2 -29 1 -29 10 0
7 -6 16 -12 19 -7 3 -2 4 12 3 15 -1 24 -8 22 -16 -1 -7 3 -11 10 -9 12 4 13
18 9 67 0 7 -7 11 -14 8 -7 -3 -13 3 -14 14 -1 10 3 16 11 13 7 -3 23 -1 36 4
l24 9 -24 14 c-14 8 -29 15 -35 15 -5 1 -13 3 -17 4 -5 1 -13 3 -19 4 -20 2
-19 56 1 91 18 32 18 33 -2 27 -16 -4 -19 -2 -13 9 24 42 64 68 51 33 -4 -12
-2 -15 9 -10 8 3 15 1 15 -4 0 -6 -4 -10 -10 -10 -5 0 -10 -5 -10 -10 0 -7 6
-7 20 0 15 8 27 7 49 -5 17 -8 37 -15 45 -15 8 0 19 -7 24 -16 5 -9 15 -15 21
-13 17 6 -8 38 -34 44 -43 9 -91 31 -103 48 -7 9 -20 17 -28 17 -31 0 -2 18
56 34 33 9 60 18 60 20 0 1 -15 2 -34 2 -19 0 -32 -4 -30 -8 3 -4 -4 -8 -14
-8 -39 0 2 63 42 65 14 0 20 25 6 25 -6 0 -8 -5 -4 -12 5 -7 3 -8 -5 -4 -19
12 18 42 49 40 41 -2 43 -3 30 -19 -9 -11 -9 -15 -1 -15 6 0 16 10 21 23 5 12
9 20 10 17 7 -25 7 -41 -1 -46 -5 -3 -9 -10 -9 -17 0 -6 6 -2 14 8 7 10 13 28
12 39 -2 28 52 79 76 73 10 -3 16 -1 12 4 -6 10 7 12 30 3 9 -3 16 -12 16 -19
0 -7 7 -19 17 -26 15 -13 15 -12 4 9 -8 15 -8 22 -1 22 6 0 8 6 4 13 -4 6 2 4
13 -6 11 -9 23 -14 27 -10 4 5 14 -1 22 -12 12 -16 17 -17 23 -7 6 10 10 8 15
-10 5 -19 8 -20 16 -8 8 13 10 12 10 -2 0 -10 3 -18 8 -19 4 0 15 -2 24 -4 9
-2 19 4 22 12 3 8 10 12 15 9 17 -11 63 17 58 34 -2 10 0 25 6 35 8 15 6 17
-10 13 -16 -4 -19 -1 -16 16 3 16 -2 26 -19 34 -17 9 -17 11 -3 7 48 -15 75
-17 75 -6 0 6 -5 11 -12 11 -6 0 -9 2 -7 5 3 2 20 0 39 -5 39 -11 48 -7 30 15
-23 28 -2 28 22 0 19 -22 28 -25 51 -19 16 3 34 17 40 31 7 15 16 22 26 18 12
-4 12 -2 -2 9 -17 13 -17 14 0 20 10 4 14 4 11 0 -10 -9 17 -34 37 -34 9 0 14
-4 11 -9 -9 -13 23 -24 79 -27 69 -3 67 -2 59 -16 -4 -7 2 -4 14 6 12 11 22
14 22 8 0 -10 46 27 47 38 0 3 1 11 2 18 0 7 5 11 10 8 5 -4 7 2 4 12 -4 17 1
18 74 10 70 -7 143 -18 227 -35 23 -4 28 -2 23 10 -7 19 19 27 52 15 38 -14
39 1 1 34 l-35 30 30 -7 c17 -4 48 -9 70 -11 49 -5 102 -21 134 -41 19 -13 45
-14 130 -9 58 3 159 9 224 12 108 6 146 18 97 31 -11 3 -17 9 -14 14 3 5 -2 9
-10 9 -8 0 -17 4 -21 9 -3 6 5 8 17 6 13 -2 68 -8 123 -15 55 -6 112 -15 127
-20 23 -7 30 -5 38 10 14 27 14 27 -27 49 -32 17 -34 20 -15 21 35 0 61 -16
124 -78 50 -48 71 -61 160 -93 57 -20 111 -40 121 -44 27 -11 21 12 -23 81
-42 67 -49 84 -26 64 8 -6 31 -44 52 -83 45 -89 44 -88 91 -114 l39 -22 -1 22
c0 12 -4 28 -8 35 -5 6 -6 12 -3 12 8 0 -24 125 -44 167 -25 54 -25 61 0 32
11 -15 19 -19 20 -11 0 11 13 12 63 7 l62 -7 -40 34 c-22 18 -43 32 -47 30 -4
-1 -8 3 -8 8 0 6 -40 52 -90 103 -49 50 -90 97 -90 104 0 7 -4 13 -10 13 -5 0
-10 -5 -10 -12 0 -16 -11 -3 -14 16 -1 9 -20 35 -42 59 -27 29 -30 34 -9 17
17 -14 41 -34 54 -45 l24 -20 -14 22 c-12 20 -11 26 8 50 28 38 51 35 206 -21
124 -45 127 -45 127 -23 0 18 2 19 10 7 8 -12 10 -9 10 12 0 31 -36 61 -107
88 -24 9 -44 20 -43 24 1 10 -64 61 -112 88 -21 12 -38 26 -38 30 0 5 5 6 12
2 7 -4 8 -3 4 5 -4 6 -12 9 -17 5 -5 -3 -17 0 -26 8 -14 11 -16 11 -8 -1 4 -8
-17 5 -48 28 -31 22 -64 41 -74 41 -24 1 -55 25 -45 35 4 5 2 5 -4 2 -6 -3
-24 2 -41 12 -16 10 -44 22 -63 26 -19 4 -34 15 -37 25 -3 10 -11 16 -18 14
-7 -3 -15 5 -19 18 l-7 23 -12 -27 c-9 -18 -17 -24 -26 -19 -10 7 -9 10 3 14
23 9 19 35 -6 42 -13 4 -50 20 -83 35 -89 42 -132 60 -142 60 -4 0 -20 6 -35
14 -15 8 -42 17 -60 21 -18 4 -36 13 -40 19 -6 8 -8 7 -8 -1 0 -7 -5 -13 -11
-13 -5 0 -7 5 -4 10 3 6 2 10 -4 10 -5 0 -11 -5 -13 -11 -4 -13 -48 -3 -48 11
0 5 8 7 18 4 15 -5 15 -4 1 5 -9 6 -62 14 -118 17 -91 6 -101 9 -101 26 0 11
5 29 12 41 13 24 14 26 26 77 7 31 14 37 59 53 35 13 53 26 57 40 10 41 -37
48 -105 17 -24 -11 -51 -19 -59 -19 -9 0 -10 2 -3 5 12 5 7 35 -6 33 -3 -1
-44 -7 -89 -13z m78 -10 c0 -3 -4 -8 -10 -11 -5 -3 -10 -1 -10 4 0 6 5 11 10
11 6 0 10 -2 10 -4z m-67 -13 c-7 -2 -19 -2 -25 0 -7 3 -2 5 12 5 14 0 19 -2
13 -5z m-748 -133 c7 -11 -9 -11 -45 0 -24 8 -24 8 7 9 17 1 35 -3 38 -9z
m-80 -28 c-11 -2 -24 -10 -28 -18 -4 -8 -16 -14 -25 -14 -16 1 -16 1 1 11 9 6
14 15 11 21 -4 7 -2 8 4 4 7 -4 12 -3 12 2 0 6 10 7 23 4 21 -6 21 -6 2 -10z
m1261 -147 c20 -19 5 -19 -20 0 -11 9 -14 15 -7 15 7 0 19 -7 27 -15z m314
-135 c0 -5 -5 -10 -11 -10 -5 0 -7 5 -4 10 3 6 8 10 11 10 2 0 4 -4 4 -10z
m55 -40 c3 -5 -1 -10 -9 -10 -9 0 -16 5 -16 10 0 6 4 10 9 10 6 0 13 -4 16
-10z m-135 -150 c8 -5 11 -10 5 -10 -5 0 -17 5 -25 10 -8 5 -10 10 -5 10 6 0
17 -5 25 -10z m104 -226 c3 -8 2 -12 -4 -9 -6 3 -10 10 -10 16 0 14 7 11 14
-7z m126 -124 c0 -5 16 -17 35 -26 19 -9 35 -20 35 -24 0 -12 -63 12 -73 28
-4 6 -14 12 -20 12 -7 0 -13 10 -12 23 0 12 -3 23 -7 25 -17 7 -68 61 -68 72
0 6 25 -14 55 -45 30 -30 55 -60 55 -65z m-216 51 c-9 -11 -21 13 -16 32 6 22
6 22 12 -3 4 -14 6 -27 4 -29z m88 -25 c7 4 8 2 4 -4 -5 -8 1 -12 15 -12 17 0
20 -3 12 -11 -13 -13 -60 11 -69 36 -3 8 -12 11 -20 8 -10 -4 -12 0 -8 12 6
15 10 14 31 -9 13 -15 29 -23 35 -20z m296 19 c-3 -3 -9 2 -12 12 -6 14 -5 15
5 6 7 -7 10 -15 7 -18z m-3271 -37 c-3 -8 -6 -5 -6 6 -1 11 2 17 5 13 3 -3 4
-12 1 -19z m3038 2 c3 -5 1 -10 -4 -10 -6 0 -11 5 -11 10 0 6 2 10 4 10 3 0 8
-4 11 -10z m13 -36 c-4 -3 -22 -6 -42 -8 -19 -1 -38 -5 -42 -9 -4 -4 -14 -7
-23 -7 -10 0 -7 5 9 14 24 13 110 22 98 10z m-3208 -29 c0 -8 -4 -15 -10 -15
-5 0 -7 7 -4 15 4 8 8 15 10 15 2 0 4 -7 4 -15z m3250 5 c19 -12 13 -16 -30
-24 -24 -5 -30 -4 -21 2 12 9 12 11 0 14 -8 3 0 3 16 1 23 -3 27 -2 15 6 -19
13 -1 14 20 1z m83 -15 c17 -4 220 -166 232 -185 11 -18 -6 -10 -45 21 -33 27
-42 30 -55 19 -10 -8 -15 -9 -15 -1 0 6 -7 11 -15 11 -25 0 -96 40 -90 50 3 5
-8 8 -24 8 -15 -1 -39 6 -52 16 -23 16 -23 16 26 16 36 0 46 3 35 10 -12 8
-12 10 -1 10 8 0 12 3 9 6 -3 3 -25 0 -48 -6 -33 -9 -45 -9 -54 1 -8 9 -8 10
0 6 7 -4 26 -4 44 0 l32 6 -23 14 -24 14 25 -6 c14 -3 33 -8 43 -10z m-3367
-40 c-9 -9 -16 -13 -16 -8 0 12 22 34 28 28 2 -2 -3 -11 -12 -20z m-116 -19
c0 -2 -8 -10 -17 -17 -16 -13 -17 -12 -4 4 13 16 21 21 21 13z m86 -34 c-18
-16 -18 -16 -6 6 6 13 14 21 18 18 3 -4 -2 -14 -12 -24z m3228 -6 c-3 -8 -12
-17 -20 -20 -11 -4 -12 -2 -1 14 14 23 29 27 21 6z m-3037 -33 c-3 -10 -5 -4
-5 12 0 17 2 24 5 18 2 -7 2 -21 0 -30z m2953 -6 c0 -5 -4 -5 -10 -2 -5 3 -10
14 -10 23 0 15 2 15 10 2 5 -8 10 -19 10 -23z m125 23 c3 -5 2 -10 -4 -10 -5
0 -13 5 -16 10 -3 6 -2 10 4 10 5 0 13 -4 16 -10z m-3297 -50 c-11 -28 -23
-49 -25 -47 -5 6 31 97 39 97 4 0 -3 -23 -14 -50z m102 30 c0 -5 -4 -10 -10
-10 -5 0 -10 5 -10 10 0 6 5 10 10 10 6 0 10 -4 10 -10z m2887 -6 c-3 -3 -12
-4 -19 -1 -8 3 -5 6 6 6 11 1 17 -2 13 -5z m138 -14 c3 -5 2 -10 -4 -10 -5 0
-13 5 -16 10 -3 6 -2 10 4 10 5 0 13 -4 16 -10z m-3042 -63 c-3 -32 -8 -55
-11 -52 -7 7 -3 95 5 108 10 17 12 1 6 -56z m134 41 c-3 -8 -6 -5 -6 6 -1 11
2 17 5 13 3 -3 4 -12 1 -19z m3384 5 c13 -15 12 -15 -11 -3 -34 17 -36 20 -18
20 9 0 22 -7 29 -17z m-3669 -111 c-7 -2 -12 -9 -12 -15 0 -7 -16 -43 -35 -82
-45 -89 -35 -45 12 55 21 44 38 69 41 61 3 -8 0 -17 -6 -19z m59 -489 c-9 -16
-10 -16 -11 -1 0 9 3 25 7 35 7 16 8 17 11 1 2 -10 -1 -25 -7 -35z m810 -25
c-5 -14 -16 -28 -25 -31 -12 -5 -10 2 7 28 25 38 32 39 18 3z m-25 -63 c14
-13 13 -15 -4 -15 -10 0 -19 7 -19 15 0 8 2 15 4 15 3 0 11 -7 19 -15z m74
-36 c0 -6 -4 -7 -10 -4 -5 3 -10 11 -10 16 0 6 5 7 10 4 6 -3 10 -11 10 -16z
m29 -18 c-15 -5 -22 6 -14 19 6 9 10 9 16 -1 5 -8 4 -15 -2 -18z m-854 -37 c8
-20 15 -42 15 -48 -1 -13 -25 30 -34 62 -11 35 2 26 19 -14z m785 6 c0 -5 -2
-10 -4 -10 -3 0 -8 5 -11 10 -3 6 -1 10 4 10 6 0 11 -4 11 -10z m-57 -17 c-7
-2 -13 -12 -13 -21 0 -15 -2 -15 -10 -2 -9 15 4 30 25 29 6 0 4 -3 -2 -6z m82
-83 c3 -5 2 -10 -4 -10 -5 0 -13 5 -16 10 -3 6 -2 10 4 10 5 0 13 -4 16 -10z
m-10 -40 c3 -5 1 -10 -4 -10 -6 0 -11 5 -11 10 0 6 2 10 4 10 3 0 8 -4 11 -10z
m-621 -58 c2 -4 -4 -9 -15 -9 -11 -1 -17 2 -14 8 7 11 22 12 29 1z m581 -2 c3
-6 -1 -7 -9 -4 -18 7 -21 14 -7 14 6 0 13 -4 16 -10z m45 0 c0 -5 -5 -10 -11
-10 -5 0 -7 5 -4 10 3 6 8 10 11 10 2 0 4 -4 4 -10z m90 -34 c0 -3 -4 -8 -10
-11 -5 -3 -10 -1 -10 4 0 6 5 11 10 11 6 0 10 -2 10 -4z m-110 -40 c0 -3 -4
-8 -10 -11 -5 -3 -10 -1 -10 4 0 6 5 11 10 11 6 0 10 -2 10 -4z m-660 -46 c0
-4 -6 -10 -14 -13 -10 -4 -12 0 -9 14 5 18 23 18 23 -1z m750 -50 c0 -5 -2
-10 -4 -10 -3 0 -8 5 -11 10 -3 6 -1 10 4 10 6 0 11 -4 11 -10z m70 -26 c0 -2
-7 -4 -15 -4 -8 0 -15 4 -15 10 0 5 7 7 15 4 8 -4 15 -8 15 -10z m-830 -4 c0
-5 -2 -10 -4 -10 -3 0 -8 5 -11 10 -3 6 -1 10 4 10 6 0 11 -4 11 -10z m800
-96 c0 -8 -4 -12 -10 -9 -5 3 -10 10 -10 16 0 5 5 9 10 9 6 0 10 -7 10 -16z
m23 -74 c16 -19 16 -20 -4 -20 -11 0 -17 5 -14 10 3 6 1 10 -4 10 -6 0 -11 5
-11 10 0 16 14 12 33 -10z m25 -65 c6 -14 10 -25 8 -25 -2 0 -11 11 -20 25 -9
14 -13 25 -8 25 5 0 14 -11 20 -25z m292 -3 c0 -15 -2 -15 -10 -2 -13 20 -13
33 0 25 6 -3 10 -14 10 -23z m-252 -27 c-3 -3 -9 2 -12 12 -6 14 -5 15 5 6 7
-7 10 -15 7 -18z m-33 -15 c-3 -5 -12 -10 -18 -10 -7 0 -6 4 3 10 19 12 23 12
15 0z m75 -2 c0 -4 -7 -8 -15 -8 -8 0 -15 4 -15 8 0 5 7 9 15 9 8 0 15 -4 15
-9z m20 -46 c0 -8 -1 -13 -3 -11 -1 2 -9 12 -16 22 -12 15 -12 17 3 11 9 -3
16 -13 16 -22z m5 -52 c3 -5 2 -10 -4 -10 -5 0 -13 5 -16 10 -3 6 -2 10 4 10
5 0 13 -4 16 -10z m499 -97 c27 -29 45 -53 39 -53 -17 0 -133 137 -133 156 0
5 11 -4 23 -21 12 -16 44 -54 71 -82z m-237 61 c-3 -3 -12 -4 -19 -1 -8 3 -5
6 6 6 11 1 17 -2 13 -5z m-147 -94 c0 -5 -2 -10 -4 -10 -3 0 -8 5 -11 10 -3 6
-1 10 4 10 6 0 11 -4 11 -10z m30 -11 c0 -6 -4 -7 -10 -4 -5 3 -10 11 -10 16
0 6 5 7 10 4 6 -3 10 -11 10 -16z m103 14 c-7 -2 -13 -11 -13 -18 0 -7 6 -16
13 -18 7 -3 5 -6 -5 -6 -11 -1 -18 6 -18 17 0 21 9 32 24 31 6 0 5 -3 -1 -6z
m-38 -13 c-3 -5 -12 -10 -18 -10 -7 0 -6 4 3 10 19 12 23 12 15 0z m-38 -26
c-3 -3 -12 -4 -19 -1 -8 3 -5 6 6 6 11 1 17 -2 13 -5z m-27 -40 c0 -2 -7 -4
-15 -4 -8 0 -15 4 -15 10 0 5 7 7 15 4 8 -4 15 -8 15 -10z m65 -24 c13 -6 15
-9 5 -9 -8 0 -22 4 -30 9 -18 12 -2 12 25 0z m2495 -24 c0 -7 -60 -12 -70 -6
-6 4 7 7 30 8 22 1 40 0 40 -2z m-2565 -16 c3 -6 -1 -7 -9 -4 -18 7 -21 14 -7
14 6 0 13 -4 16 -10z m-1463 -7 c-6 -2 -10 -9 -6 -14 3 -5 1 -9 -4 -9 -6 0
-12 7 -16 15 -4 11 1 15 17 14 12 0 16 -3 9 -6z m3005 -225 c-3 -8 -6 -5 -6 6
-1 11 2 17 5 13 3 -3 4 -12 1 -19z m33 2 c0 -5 -2 -10 -4 -10 -3 0 -8 5 -11
10 -3 6 -1 10 4 10 6 0 11 -4 11 -10z m-2780 -60 c0 -11 -4 -20 -9 -20 -7 0
-8 17 -2 38 4 10 11 -2 11 -18z m2416 -6 c-4 -9 -9 -15 -11 -12 -3 3 -3 13 1
22 4 9 9 15 11 12 3 -3 3 -13 -1 -22z m-29 -9 c-4 -8 -11 -15 -17 -15 -6 0 -6
7 2 20 14 22 24 19 15 -5z m-187 5 c0 -5 -10 -10 -22 -9 -22 0 -22 1 -3 9 11
5 21 9 23 9 1 1 2 -3 2 -9z m-45 -20 c19 -8 19 -9 -2 -9 -12 -1 -25 4 -28 9
-7 12 2 12 30 0z m-2675 -24 c0 -3 -4 -8 -10 -11 -5 -3 -10 -1 -10 4 0 6 5 11
10 11 6 0 10 -2 10 -4z m2275 -16 c-3 -5 -16 -10 -28 -9 -20 1 -20 2 3 9 14 4
26 8 28 9 2 1 0 -3 -3 -9z m401 -5 c12 -12 12 -15 2 -16 -7 0 -21 -2 -30 -4
-21 -4 -22 1 -5 20 15 18 15 18 33 0z m-2709 -17 c-3 -8 -6 -5 -6 6 -1 11 2
17 5 13 3 -3 4 -12 1 -19z m2442 -7 c-15 -5 -22 6 -14 19 6 9 10 9 16 -1 5 -8
4 -15 -2 -18z m106 19 c-3 -5 -14 -10 -23 -9 -14 0 -13 2 3 9 27 11 27 11 20
0z m-188 -15 c-1 -5 3 -9 10 -10 26 -1 21 -13 -8 -19 -24 -5 -30 -10 -24 -23
5 -15 4 -16 -7 -5 -11 11 -10 16 5 26 21 16 22 26 3 26 -8 0 -17 4 -20 9 -3 5
5 8 18 7 13 0 24 -5 23 -11z m160 -12 c-7 -6 -46 10 -41 18 3 5 14 3 24 -3 11
-7 18 -13 17 -15z m10 -28 c-18 -17 -37 -20 -37 -5 0 6 -5 10 -11 10 -5 0 -7
-5 -4 -10 4 -6 -5 -5 -19 2 -14 6 -26 16 -26 22 0 6 4 6 11 -1 6 -6 18 -9 25
-6 8 3 20 0 27 -6 10 -7 17 -5 27 10 8 11 16 15 18 9 2 -5 -3 -17 -11 -25z
m-2520 9 c-3 -3 -12 -4 -19 -1 -8 3 -5 6 6 6 11 1 17 -2 13 -5z m13 -19 c-7
-8 -17 -15 -23 -15 -6 0 -2 7 9 15 25 19 30 19 14 0z m2525 -4 c3 -5 2 -12 -3
-15 -5 -3 -9 1 -9 9 0 17 3 19 12 6z m-160 -11 c-3 -5 -14 -10 -23 -10 -15 0
-15 2 -2 10 20 13 33 13 25 0z m45 0 c0 -5 -2 -10 -4 -10 -3 0 -8 5 -11 10 -3
6 -1 10 4 10 6 0 11 -4 11 -10z m50 -4 c0 -3 -4 -8 -10 -11 -5 -3 -10 -1 -10
4 0 6 5 11 10 11 6 0 10 -2 10 -4z m-98 -40 c5 -7 8 -4 8 7 0 16 2 17 15 3 21
-20 19 -26 -8 -26 -13 0 -28 -5 -34 -11 -8 -8 -13 -7 -18 2 -5 7 -4 10 3 5 6
-3 13 -2 17 4 3 5 1 10 -6 10 -7 0 -9 3 -6 7 4 3 -1 12 -11 20 -15 12 -14 13
8 2 14 -7 28 -17 32 -23z m-65 -8 c-3 -8 -6 -5 -6 6 -1 11 2 17 5 13 3 -3 4
-12 1 -19z m-1763 -4 c3 -8 2 -12 -4 -9 -6 3 -10 10 -10 16 0 14 7 11 14 -7z
m1870 -32 c3 -5 -1 -9 -9 -9 -8 0 -12 4 -9 9 3 4 7 8 9 8 2 0 6 -4 9 -8z m-91
-22 c4 0 5 5 1 12 -4 7 7 2 24 -11 37 -26 37 -27 16 -35 -12 -5 -15 -2 -10 10
5 13 4 14 -7 6 -11 -9 -19 -6 -38 16 -13 15 -17 21 -9 15 8 -7 18 -13 23 -13z
m-122 -7 c13 -15 12 -15 -8 -4 -24 12 -29 21 -14 21 5 0 15 -7 22 -17z m-1668
-27 c6 -15 -17 -16 -30 -1 -4 4 -2 5 5 1 6 -4 12 -2 12 3 0 15 7 14 13 -3z
m1818 -38 c12 3 12 -5 0 -13 -11 -6 -41 22 -41 38 0 7 8 3 16 -8 8 -11 20 -19
25 -17z m39 17 c10 -12 10 -15 -4 -15 -9 0 -16 7 -16 15 0 8 2 15 4 15 2 0 9
-7 16 -15z m-136 -33 c3 -5 -1 -9 -9 -9 -8 0 -15 4 -15 9 0 4 4 8 9 8 6 0 12
-4 15 -8z m74 -24 c10 -10 15 -10 21 1 6 9 11 10 15 2 4 -6 2 -11 -4 -11 -7 0
-10 -6 -7 -12 3 -8 -4 -13 -18 -13 -13 0 -21 4 -18 8 3 4 -1 14 -7 22 -15 18
1 20 18 3z m157 -38 c7 -12 -15 -13 -30 -2 -5 4 -11 13 -13 20 -2 10 2 10 17
2 11 -5 23 -15 26 -20z m-181 -19 c-4 -3 -9 0 -11 7 -3 6 -10 9 -15 6 -7 -4
-8 -2 -4 5 6 9 11 9 22 0 8 -6 12 -15 8 -18z m-99 -1 c3 -5 1 -10 -4 -10 -6 0
-11 5 -11 10 0 6 2 10 4 10 3 0 8 -4 11 -10z m35 -24 c0 -2 -7 -7 -16 -10 -8
-3 -12 -2 -9 4 6 10 25 14 25 6z m-2340 -14 c0 -16 -28 -47 -36 -39 -4 4 -2 7
5 7 9 0 9 5 1 20 -9 17 -8 20 10 20 11 0 20 -4 20 -8z m2469 -29 c2 -2 -8 -3
-22 -3 -20 0 -25 4 -21 15 5 13 9 13 23 3 9 -7 18 -14 20 -15z m-121 -43 c8 0
13 -2 10 -5 -3 -4 -18 -3 -33 1 -20 5 -23 9 -13 15 7 5 14 4 16 -1 2 -6 11
-10 20 -10z m119 5 c0 -11 -4 -12 -14 -4 -7 6 -13 13 -13 15 0 2 6 4 13 4 8 0
14 -7 14 -15z m-37 -24 c0 -9 7 -25 15 -35 19 -26 19 -37 -1 -29 -8 3 -13 12
-10 19 3 8 -1 14 -10 14 -15 0 -35 39 -28 52 8 12 34 -4 34 -21z m30 -6 c11
-13 10 -14 -4 -9 -9 3 -16 10 -16 15 0 13 6 11 20 -6z m-75 -23 c-1 -11 -10
-16 -21 -14 -26 5 -31 12 -9 12 14 0 15 3 6 14 -10 12 -9 13 7 9 12 -3 19 -12
17 -21z m-1755 -3 c0 -6 -4 -7 -10 -4 -5 3 -10 11 -10 16 0 6 5 7 10 4 6 -3
10 -11 10 -16z m1857 -11 c2 -17 0 -19 -7 -8 -5 8 -6 18 -4 22 8 12 10 10 11
-14z m-137 -18 c0 -5 -10 -10 -22 -9 -22 0 -22 1 -3 9 11 5 21 9 23 9 1 1 2
-3 2 -9z m45 -20 c3 -5 1 -10 -4 -10 -6 0 -11 5 -11 10 0 6 2 10 4 10 3 0 8
-4 11 -10z m-1778 -42 c-3 -8 -6 -5 -6 6 -1 11 2 17 5 13 3 -3 4 -12 1 -19z
m1803 12 c0 -5 -2 -10 -4 -10 -3 0 -8 5 -11 10 -3 6 -1 10 4 10 6 0 11 -4 11
-10z m34 -16 c3 -8 2 -12 -4 -9 -6 3 -10 10 -10 16 0 14 7 11 14 -7z m56 -20
c0 -8 -19 -13 -24 -6 -3 5 1 9 9 9 8 0 15 -2 15 -3z m-287 -29 c-3 -9 -8 -14
-10 -11 -3 3 -2 9 2 15 9 16 15 13 8 -4z m264 -1 c-3 -3 -12 -4 -19 -1 -8 3
-5 6 6 6 11 1 17 -2 13 -5z m3 -18 c0 -2 -7 -7 -16 -10 -8 -3 -12 -2 -9 4 6
10 25 14 25 6z m60 -12 c0 -2 -7 -4 -15 -4 -8 0 -15 4 -15 10 0 5 7 7 15 4 8
-4 15 -8 15 -10z m-2550 -8 c0 -3 -4 -8 -10 -11 -5 -3 -10 -1 -10 4 0 6 5 11
10 11 6 0 10 -2 10 -4z m-2 -41 c-6 -14 -15 -25 -20 -25 -5 0 -1 11 8 25 9 14
18 25 20 25 2 0 -2 -11 -8 -25z m2578 -20 c17 -16 14 -18 -10 -9 -9 3 -16 10
-16 15 0 13 9 11 26 -6z m-2576 -40 c4 3 6 -4 3 -15 -8 -29 -21 -24 -20 8 0
15 2 21 4 14 3 -6 8 -10 13 -7z m2480 5 c0 -5 -7 -7 -15 -4 -8 4 -15 8 -15 10
0 2 7 4 15 4 8 0 15 -4 15 -10z m33 -27 c-3 -7 2 -13 11 -13 9 0 16 -4 16 -10
0 -13 -11 -12 -32 4 -13 10 -15 15 -6 24 9 9 9 12 -1 12 -7 0 -9 5 -5 11 9 15
24 -9 17 -28z m81 -28 c3 -9 0 -15 -10 -15 -9 0 -12 5 -8 12 5 8 2 9 -9 5 -10
-3 -17 -2 -17 3 0 16 37 11 44 -5z m179 0 c35 -4 37 -5 37 -14 0 -6 -12 -8
-27 -7 -16 2 -33 4 -39 5 -7 0 -14 8 -17 15 -4 10 -1 13 9 9 9 -3 25 -7 37 -8z
m-293 -11 c0 -8 -5 -12 -10 -9 -6 4 -8 11 -5 16 9 14 15 11 15 -7z m30 -14 c0
-5 -5 -10 -11 -10 -5 0 -7 5 -4 10 3 6 8 10 11 10 2 0 4 -4 4 -10z m211 3 c1
-5 2 -20 3 -34 2 -22 -1 -25 -23 -21 -25 5 -25 5 -3 13 12 5 22 11 22 14 0 4
-4 4 -9 0 -12 -7 -24 12 -16 25 7 12 24 13 26 3z m-264 -9 c-3 -3 -12 -4 -19
-1 -8 3 -5 6 6 6 11 1 17 -2 13 -5z m163 -4 c0 -5 -4 -10 -10 -10 -5 0 -10 5
-10 10 0 6 5 10 10 10 6 0 10 -4 10 -10z m-104 -19 c-7 -11 -76 -20 -76 -10 0
4 15 10 33 12 17 2 36 5 40 5 5 1 6 -2 3 -7z m103 -18 c0 -10 -3 -13 -5 -6 -3
7 -13 9 -22 6 -15 -4 -15 -3 -2 6 22 15 30 14 29 -6z m176 -13 c3 -5 1 -10 -4
-10 -6 0 -11 5 -11 10 0 6 2 10 4 10 3 0 8 -4 11 -10z m-338 -6 c-3 -3 -12 -4
-19 -1 -8 3 -5 6 6 6 11 1 17 -2 13 -5z m80 0 c-3 -3 -12 -4 -19 -1 -8 3 -5 6
6 6 11 1 17 -2 13 -5z m40 -10 c-3 -3 -12 -4 -19 -1 -8 3 -5 6 6 6 11 1 17 -2
13 -5z m136 -67 c3 -8 0 -14 -7 -14 -7 0 -13 6 -13 14 0 7 4 13 8 13 4 0 9 -6
12 -13z m92 -26 c2 -5 -10 -8 -28 -9 -30 -1 -51 14 -41 29 5 9 61 -9 69 -20z
m-155 -5 c0 -11 -19 -15 -25 -6 -3 5 1 10 9 10 9 0 16 -2 16 -4z m-24 -24 c6
-4 14 -16 17 -27 7 -18 6 -19 -6 -3 -8 10 -18 14 -22 10 -5 -4 -5 -2 -2 5 4 6
1 14 -5 16 -7 3 -8 6 -3 6 6 0 15 -3 21 -7z m-2615 -55 c-10 -9 -11 -8 -5 6 3
10 9 15 12 12 3 -3 0 -11 -7 -18z m2726 -12 c0 -7 -8 -10 -19 -7 -20 5 -17 19
5 19 7 0 14 -6 14 -12z m249 -1 c11 4 24 -1 36 -14 20 -21 19 -24 -6 -14 -9 3
-13 10 -10 15 3 5 0 9 -6 9 -6 0 -13 -7 -16 -15 -6 -14 -8 -13 -20 2 -7 10
-13 23 -14 28 0 6 4 4 9 -4 5 -8 16 -11 27 -7z m-346 0 c0 -8 -19 -13 -24 -6
-3 5 1 9 9 9 8 0 15 -2 15 -3z m278 -59 c9 3 13 3 9 -1 -4 -4 -2 -14 5 -21 8
-10 1 -9 -25 4 -20 10 -37 22 -37 26 0 5 5 5 10 2 6 -3 11 0 11 7 1 7 3 5 6
-5 3 -12 10 -16 21 -12z m-171 -31 c-3 -3 -12 -4 -19 -1 -8 3 -5 6 6 6 11 1
17 -2 13 -5z m236 -1 c-7 -2 -19 -2 -25 0 -7 3 -2 5 12 5 14 0 19 -2 13 -5z
m-2383 -18 c0 -8 -4 -15 -10 -15 -5 0 -7 7 -4 15 4 8 8 15 10 15 2 0 4 -7 4
-15z m2330 -78 c0 -6 -9 0 -20 13 -11 13 -20 25 -20 28 0 3 9 -3 20 -13 11
-10 20 -23 20 -28z m35 33 c-3 -5 -12 -10 -18 -10 -7 0 -6 4 3 10 19 12 23 12
15 0z m-115 -30 c0 -5 -5 -10 -11 -10 -5 0 -7 5 -4 10 3 6 8 10 11 10 2 0 4
-4 4 -10z m263 -4 c13 -10 15 -15 5 -19 -19 -6 -38 3 -38 19 0 17 10 17 33 0z
m-3087 -15 c0 -11 -4 -17 -8 -15 -4 3 -8 12 -8 20 0 8 4 14 8 14 4 0 8 -9 8
-19z m3004 9 c0 -5 -4 -10 -9 -10 -6 0 -13 5 -16 10 -3 6 1 10 9 10 9 0 16 -4
16 -10z m-35 -10 c3 -6 -1 -7 -9 -4 -18 7 -21 14 -7 14 6 0 13 -4 16 -10z m63
-2 c-2 -7 5 -12 14 -12 10 1 14 -4 11 -12 -3 -9 1 -14 12 -14 9 0 13 5 10 10
-10 15 5 12 22 -5 14 -14 11 -16 -27 -13 -31 1 -44 7 -47 19 -3 11 -11 16 -21
12 -12 -4 -11 -1 3 10 24 20 26 20 23 5z m-78 -12 c0 -2 -7 -7 -16 -10 -8 -3
-12 -2 -9 4 6 10 25 14 25 6z m187 -25 c-3 -13 1 -21 12 -24 11 -3 9 -5 -6 -6
-18 -1 -22 4 -21 24 1 14 6 25 11 25 5 0 7 -9 4 -19z m162 5 c40 -6 79 -36 47
-36 -9 0 -25 8 -34 17 -16 16 -17 15 -20 -1 -3 -16 -5 -16 -19 4 -14 20 -16
20 -40 4 -14 -9 -22 -11 -19 -5 4 6 0 11 -8 11 -9 0 -16 4 -16 8 0 8 51 8 109
-2z m-474 -26 c3 -6 -1 -7 -9 -4 -18 7 -21 14 -7 14 6 0 13 -4 16 -10z m-2455
-160 c25 16 40 11 40 -12 0 -19 -2 -20 -11 -8 -10 15 -10 11 5 -77 2 -13 0
-23 -4 -23 -5 0 -6 -9 -3 -20 3 -11 10 -17 17 -13 6 4 4 -1 -4 -12 -14 -16
-15 -16 -18 -1 -7 32 -19 6 -15 -31 2 -21 5 -57 7 -80 1 -23 8 -49 15 -57 8
-9 14 -28 14 -42 0 -14 6 -28 13 -31 10 -4 11 -10 3 -25 -8 -15 -8 -19 0 -14
6 4 9 2 6 -6 -3 -7 -1 -36 5 -63 6 -28 12 -59 14 -70 2 -11 5 -21 6 -22 1 -2
3 -6 5 -10 1 -5 5 -15 9 -24 4 -9 6 -20 5 -25 -1 -5 0 -11 1 -14 1 -3 3 -12 5
-20 5 -27 33 -135 40 -155 l7 -20 -14 20 c-36 50 -111 321 -121 441 -2 23 -7
45 -10 50 -8 14 -25 120 -32 194 -14 166 -14 184 -7 173 5 -8 13 -9 22 -3z
m-373 -540 c-1 -12 -5 -16 -10 -11 -5 5 -6 14 -3 20 11 16 15 13 13 -9z m4800
-326 c-3 -3 -12 -4 -19 -1 -8 3 -5 6 6 6 11 1 17 -2 13 -5z m-4247 -49 c0 -5
-5 -3 -10 5 -5 8 -10 20 -10 25 0 6 5 3 10 -5 5 -8 10 -19 10 -25z m165 -53
c-3 -3 -11 0 -17 6 -7 7 -16 12 -22 12 -6 0 -5 -5 2 -12 14 -14 16 -32 3 -24
-5 3 -21 -6 -35 -19 -33 -31 -40 -32 -24 -2 12 21 13 25 17 45 1 4 6 0 11 -8
8 -12 10 -11 10 8 0 13 6 22 15 22 8 0 14 3 14 8 -4 24 3 23 16 -2 9 -16 13
-31 10 -34z m-18 -38 c-3 -3 -12 -4 -19 -1 -8 3 -5 6 6 6 11 1 17 -2 13 -5z
m518 -13 c-3 -6 -11 -11 -16 -11 -5 0 -4 6 3 14 14 16 24 13 13 -3z m-532 -8
c-7 -2 -19 -2 -25 0 -7 3 -2 5 12 5 14 0 19 -2 13 -5z m337 -51 c-6 -2 -17 2
-25 8 -8 7 -27 10 -42 7 -16 -4 -22 -4 -15 -1 6 3 12 12 12 20 0 12 8 11 41
-8 22 -12 35 -24 29 -26z m-110 28 c12 -7 12 -12 2 -22 -9 -9 -15 -9 -24 0 -7
7 -8 12 -2 12 5 0 2 5 -6 10 -13 9 -13 10 0 10 8 0 22 -5 30 -10z m360 0 c8
-5 11 -10 5 -10 -5 0 -17 5 -25 10 -8 5 -10 10 -5 10 6 0 17 -5 25 -10z m-125
-18 c-3 -3 -11 0 -18 7 -9 10 -8 11 6 5 10 -3 15 -9 12 -12z m95 -8 c0 -2 -9
0 -20 6 -11 6 -20 13 -20 16 0 2 9 0 20 -6 11 -6 20 -13 20 -16z m-260 -4 c0
-5 -2 -10 -4 -10 -3 0 -8 5 -11 10 -3 6 -1 10 4 10 6 0 11 -4 11 -10z m100 -9
c0 -4 -7 -8 -15 -8 -8 0 -15 6 -15 13 0 8 6 11 15 8 8 -4 15 -9 15 -13z m64 3
c33 -6 31 -14 -3 -10 -18 2 -38 9 -44 16 -10 10 -8 11 8 6 11 -4 28 -9 39 -12z
m-214 -4 c0 -5 -5 -10 -11 -10 -6 0 -9 -6 -6 -14 4 -10 0 -14 -12 -13 -11 0
-17 7 -14 13 2 7 -4 14 -14 17 -10 2 -6 3 10 1 15 -2 27 1 27 6 0 6 5 10 10
10 6 0 10 -4 10 -10z m309 -17 c2 -2 -3 -3 -11 -3 -9 0 -19 7 -22 16 -6 15 -4
15 11 3 10 -7 20 -15 22 -16z m-44 -3 c-3 -5 3 -10 14 -10 12 0 21 -4 21 -9 0
-6 -12 -6 -31 1 -23 8 -27 13 -17 19 17 11 20 11 13 -1z m82 -4 c0 -8 -9 -14
-19 -13 -18 1 -18 2 -2 14 22 16 21 16 21 -1z m38 4 c3 -6 -1 -7 -9 -4 -18 7
-21 14 -7 14 6 0 13 -4 16 -10z m3265 -876 c0 -2 -7 -4 -15 -4 -8 0 -15 4 -15
10 0 5 7 7 15 4 8 -4 15 -8 15 -10z m-213 -280 c-3 -3 -12 -4 -19 -1 -8 3 -5
6 6 6 11 1 17 -2 13 -5z m8 -54 c3 -6 -1 -7 -9 -4 -18 7 -21 14 -7 14 6 0 13
-4 16 -10z m-10 -30 c3 -6 -1 -7 -9 -4 -18 7 -21 14 -7 14 6 0 13 -4 16 -10z"/>
<path d="M6860 8370 c-24 -8 -24 -8 7 -9 17 -1 35 4 38 9 7 11 -9 11 -45 0z"/>
<path d="M6899 8339 c-10 -6 -7 -9 14 -9 29 0 35 5 14 13 -8 3 -20 1 -28 -4z"/>
<path d="M6949 8314 c-10 -12 -9 -13 4 -9 8 4 18 2 22 -4 7 -13 25 -15 25 -3
0 4 -9 13 -19 19 -16 10 -22 9 -32 -3z"/>
<path d="M5588 5013 c7 -3 16 -2 19 1 4 3 -2 6 -13 5 -11 0 -14 -3 -6 -6z"/>
<path d="M6730 8166 c0 -8 4 -17 9 -20 5 -4 7 3 4 14 -6 23 -13 26 -13 6z"/>
<path d="M5295 8041 c-3 -5 0 -13 6 -17 7 -4 9 -3 5 4 -3 5 0 13 6 15 9 4 10
6 1 6 -6 1 -14 -3 -18 -8z"/>
<path d="M4416 7881 c-14 -5 -16 -10 -8 -15 7 -4 19 0 28 8 17 17 11 19 -20 7z"/>
<path d="M5203 7819 c-35 -22 -46 -37 -15 -20 22 13 58 40 52 41 -3 0 -20 -10
-37 -21z"/>
<path d="M4432 7799 c2 -8 22 -23 44 -34 22 -12 50 -28 64 -38 41 -29 45 -19
5 13 -21 17 -43 30 -50 30 -7 0 -25 10 -40 22 -18 14 -26 17 -23 7z"/>
<path d="M4412 7739 c2 -7 10 -15 17 -17 8 -3 12 1 9 9 -2 7 -10 15 -17 17 -8
3 -12 -1 -9 -9z"/>
<path d="M4612 7639 c-2 -63 2 -81 18 -100 10 -13 19 -19 20 -13 0 5 -5 15
-12 22 -7 7 -15 47 -18 90 l-7 77 -1 -76z"/>
<path d="M4278 7623 c-28 -7 -21 -21 7 -15 14 2 22 8 19 13 -3 5 -6 8 -7 8 -1
-1 -10 -3 -19 -6z"/>
<path d="M4447 7604 c2 -6 -1 -15 -7 -19 -8 -5 -8 -11 1 -21 18 -22 26 -17 25
19 -1 19 -6 34 -13 34 -6 0 -9 -6 -6 -13z"/>
<path d="M4286 7585 c4 -8 10 -15 15 -15 5 0 9 7 9 15 0 8 -7 15 -15 15 -9 0
-12 -6 -9 -15z"/>
<path d="M4339 7598 c-12 -40 1 -69 15 -33 3 8 1 15 -5 15 -6 0 -7 5 -4 10 3
6 4 10 1 10 -3 0 -6 -1 -7 -2z"/>
<path d="M4490 7562 c0 -5 12 -14 26 -20 14 -7 23 -8 19 -2 -9 15 -45 32 -45
22z"/>
<path d="M4435 7530 c3 -5 13 -10 21 -10 8 0 12 5 9 10 -3 6 -13 10 -21 10 -8
0 -12 -4 -9 -10z"/>
<path d="M4491 7527 c9 -7 18 -21 20 -31 2 -11 10 -21 17 -22 7 -1 8 0 2 3 -5
2 -10 15 -10 28 0 15 -7 25 -22 28 -20 5 -21 4 -7 -6z"/>
<path d="M4445 7500 c3 -5 8 -10 11 -10 2 0 4 5 4 10 0 6 -5 10 -11 10 -5 0
-7 -4 -4 -10z"/>
<path d="M4370 7482 c0 -6 -10 -8 -22 -5 -22 5 -22 5 -5 -13 16 -17 18 -17 33
-2 11 11 12 18 5 22 -6 4 -11 3 -11 -2z"/>
<path d="M3167 7453 c-17 -30 -27 -84 -19 -99 9 -15 11 -15 22 6 7 12 10 38 7
57 -4 23 -2 31 5 27 7 -4 8 -2 4 4 -8 14 -13 15 -19 5z"/>
<path d="M4440 7456 c0 -1 9 -9 20 -19 15 -13 20 -14 20 -3 0 7 -9 16 -20 19
-11 3 -20 4 -20 3z"/>
<path d="M4500 7456 c0 -2 7 -7 16 -10 8 -3 12 -2 9 4 -6 10 -25 14 -25 6z"/>
<path d="M4338 7433 c7 -3 16 -2 19 1 4 3 -2 6 -13 5 -11 0 -14 -3 -6 -6z"/>
<path d="M4374 7424 c5 -13 2 -15 -14 -11 -17 4 -19 3 -9 -9 6 -8 8 -14 3 -14
-12 0 19 -20 31 -20 6 0 4 4 -4 9 -7 5 -10 14 -7 20 4 6 11 9 15 7 4 -3 13 -1
21 5 12 7 12 9 -3 9 -10 0 -15 5 -12 10 3 6 -1 10 -10 10 -12 0 -15 -5 -11
-16z"/>
<path d="M4371 7356 c11 -12 69 -25 69 -15 0 5 -9 9 -19 9 -11 0 -28 3 -38 7
-10 3 -15 3 -12 -1z"/>
<path d="M4881 7344 c0 -11 3 -14 6 -6 3 7 2 16 -1 19 -3 4 -6 -2 -5 -13z"/>
<path d="M4475 7340 c3 -5 11 -10 16 -10 6 0 7 5 4 10 -3 6 -11 10 -16 10 -6
0 -7 -4 -4 -10z"/>
<path d="M4371 7314 c0 -11 3 -14 6 -6 3 7 2 16 -1 19 -3 4 -6 -2 -5 -13z"/>
<path d="M4461 7314 c0 -11 3 -14 6 -6 3 7 2 16 -1 19 -3 4 -6 -2 -5 -13z"/>
<path d="M4526 7287 c3 -10 9 -15 12 -12 3 3 0 11 -7 18 -10 9 -11 8 -5 -6z"/>
<path d="M4374 7229 c-3 -6 3 -13 15 -16 11 -3 18 -9 15 -14 -3 -5 0 -9 5 -9
17 0 13 14 -9 32 -12 11 -22 13 -26 7z"/>
<path d="M4830 7231 c0 -5 5 -13 10 -16 6 -3 10 -2 10 4 0 5 -4 13 -10 16 -5
3 -10 2 -10 -4z"/>
<path d="M4580 7220 c0 -5 5 -10 11 -10 5 0 7 5 4 10 -3 6 -8 10 -11 10 -2 0
-4 -4 -4 -10z"/>
<path d="M4938 7211 c-10 -10 -18 -22 -18 -26 0 -5 5 -4 11 2 6 6 18 9 25 6 8
-3 21 0 29 7 8 6 20 8 27 4 10 -5 10 -4 1 6 -10 11 -15 11 -28 0 -14 -11 -19
-7 -16 13 2 12 -13 7 -31 -12z"/>
<path d="M4861 7184 c0 -11 3 -14 6 -6 3 7 2 16 -1 19 -3 4 -6 -2 -5 -13z"/>
<path d="M4985 7185 c-5 -2 -22 -6 -37 -9 -25 -6 -27 -9 -25 -55 1 -27 5 -47
9 -45 11 7 16 -20 6 -38 -6 -14 -5 -18 7 -18 9 0 13 -4 10 -10 -3 -5 -1 -10 6
-10 7 0 10 -3 6 -6 -3 -4 0 -13 8 -20 8 -8 11 -22 8 -31 -4 -11 -3 -14 5 -9 8
5 12 -1 13 -16 0 -13 3 -17 6 -10 3 9 10 4 19 -13 15 -30 19 -48 5 -27 -6 11
-9 9 -13 -6 -4 -16 -2 -19 10 -15 11 5 14 2 9 -10 -3 -9 1 -21 10 -29 14 -11
16 -11 11 4 -4 10 -1 19 9 22 13 5 13 9 2 23 -12 14 -12 15 -1 9 11 -7 12 -4
3 11 -6 11 -7 23 -4 27 11 11 12 76 1 70 -6 -4 -7 2 -3 16 5 15 4 20 -4 16 -6
-4 -11 -2 -11 3 0 6 8 11 18 12 14 0 14 2 -3 8 -19 8 -19 8 4 16 22 7 23 8 6
17 -14 9 -15 12 -4 20 11 8 11 9 -1 5 -9 -3 -22 0 -30 7 -22 17 -52 75 -45 86
3 6 5 10 3 9 -2 0 -7 -2 -13 -4z m-18 -30 c0 -8 -4 -12 -9 -9 -5 3 -6 10 -3
15 9 13 12 11 12 -6z m61 -90 c-3 -3 -9 2 -12 12 -6 14 -5 15 5 6 7 -7 10 -15
7 -18z m37 -13 c-3 -3 -11 0 -18 7 -9 10 -8 11 6 5 10 -3 15 -9 12 -12z"/>
<path d="M4467 7173 c-12 -12 -7 -23 7 -17 11 4 13 -2 9 -28 -3 -18 -2 -30 2
-26 13 13 14 57 1 67 -7 6 -16 8 -19 4z"/>
<path d="M5006 7155 c4 -8 13 -15 21 -15 12 0 12 2 -1 15 -8 8 -17 15 -20 15
-3 0 -3 -7 0 -15z"/>
<path d="M5030 7120 c0 -5 11 -9 25 -8 27 3 25 10 -5 15 -11 2 -20 -2 -20 -7z"/>
<path d="M4522 7100 c7 -11 16 -20 21 -20 4 0 3 9 -3 20 -6 11 -15 20 -20 20
-6 0 -5 -9 2 -20z"/>
<path d="M4480 7080 c0 -5 5 -10 10 -10 6 0 10 5 10 10 0 6 -4 10 -10 10 -5 0
-10 -4 -10 -10z"/>
<path d="M4450 7031 c0 -5 5 -13 10 -16 6 -3 10 -2 10 4 0 5 -4 13 -10 16 -5
3 -10 2 -10 -4z"/>
<path d="M4468 6983 c-2 -10 8 -29 25 -45 16 -15 26 -31 23 -36 -2 -4 9 -13
25 -19 28 -11 29 -10 17 5 -7 9 -20 23 -28 30 -13 12 -13 13 0 7 8 -4 6 1 -5
10 -17 13 -18 17 -5 25 13 8 13 11 1 22 -9 8 -11 9 -7 1 12 -21 -12 -24 -27
-2 -14 19 -15 20 -19 2z"/>
<path d="M3517 6946 c-4 -10 -1 -13 9 -9 7 3 14 9 14 14 0 14 -17 10 -23 -5z"/>
<path d="M4635 6920 c3 -5 8 -10 11 -10 2 0 4 5 4 10 0 6 -5 10 -11 10 -5 0
-7 -4 -4 -10z"/>
<path d="M4461 6904 c0 -11 3 -14 6 -6 3 7 2 16 -1 19 -3 4 -6 -2 -5 -13z"/>
<path d="M4615 6890 c3 -5 8 -10 11 -10 2 0 4 5 4 10 0 6 -5 10 -11 10 -5 0
-7 -4 -4 -10z"/>
<path d="M4520 6860 c0 -6 5 -8 10 -5 6 3 10 2 10 -3 0 -5 13 -9 30 -8 36 1
41 16 6 16 -13 0 -31 3 -40 6 -9 3 -16 1 -16 -6z"/>
<path d="M4605 6830 c-3 -5 -1 -10 4 -10 6 0 11 5 11 10 0 6 -2 10 -4 10 -3 0
-8 -4 -11 -10z"/>
<path d="M5983 6825 c-10 -11 -8 -17 14 -33 l26 -19 -31 5 c-18 2 -30 8 -27
12 3 5 1 12 -5 15 -6 4 -10 3 -9 -2 1 -4 1 -13 0 -20 -1 -14 -61 -36 -61 -22
0 5 5 9 12 9 6 0 8 3 5 7 -4 3 -17 -2 -29 -13 -12 -10 -18 -13 -14 -6 4 7 1
12 -9 12 -9 0 -13 -4 -10 -10 3 -5 1 -10 -4 -10 -6 0 -11 5 -11 11 0 6 -8 3
-17 -7 -17 -16 -18 -16 -25 7 -7 21 -7 20 -5 -7 2 -18 -2 -31 -9 -31 -6 0 -9
9 -7 21 3 15 2 17 -5 8 -9 -13 -29 -20 -67 -21 -17 -1 -18 -3 -5 -12 12 -9 12
-10 -3 -5 -10 3 -21 6 -23 6 -3 0 -2 5 1 10 3 6 1 10 -4 10 -6 0 -11 -8 -11
-17 0 -15 -2 -16 -10 -3 -9 13 -10 13 -10 0 0 -13 -1 -13 -11 0 -9 12 -10 11
-6 -7 4 -17 1 -23 -13 -23 -21 0 -43 23 -32 35 4 5 1 5 -6 1 -9 -5 -9 -12 -1
-27 10 -20 10 -20 -15 -4 -24 16 -26 16 -32 1 -3 -9 -10 -13 -15 -10 -5 3 -9
0 -9 -7 0 -7 -3 -9 -7 -6 -3 4 2 17 13 29 14 17 15 19 2 9 -9 -7 -23 -9 -30
-5 -7 4 -10 4 -6 0 12 -13 -15 -34 -32 -25 -34 19 -90 37 -90 30 0 -5 10 -11
22 -14 12 -4 20 -8 17 -11 -10 -11 -49 7 -49 23 0 13 -2 14 -9 1 -6 -8 -8 -17
-5 -21 6 -10 -54 -32 -71 -25 -8 3 -15 2 -15 -3 0 -4 -13 -8 -28 -7 -20 1 -39
13 -63 40 -19 22 -28 36 -20 32 8 -6 7 0 -4 18 -10 14 -21 26 -25 26 -4 0 -5
11 -3 24 3 13 1 26 -4 29 -6 4 -10 -12 -11 -33 -1 -24 3 -40 9 -40 7 0 7 -6
-2 -17 -10 -12 -10 -15 -1 -9 7 4 15 0 20 -12 8 -21 77 -107 106 -131 10 -9
23 -20 30 -26 25 -22 97 -56 106 -50 5 3 10 2 10 -3 0 -6 24 -16 53 -24 78
-20 526 -17 982 7 54 3 75 1 65 -5 -13 -9 -13 -10 1 -10 8 0 20 5 26 11 6 6
63 13 135 15 67 2 131 4 140 4 10 1 20 6 23 11 4 5 11 7 16 4 5 -4 9 0 9 7 0
9 3 9 10 -2 6 -9 10 -10 10 -3 0 6 8 11 18 11 17 -1 57 6 90 16 9 3 34 7 55
10 21 4 48 11 59 17 16 8 19 8 13 -1 -6 -9 -3 -9 13 -1 11 6 34 11 51 11 32 0
55 20 24 21 -50 1 40 20 145 30 111 10 157 19 99 19 -14 0 -28 4 -31 9 -3 4
-17 7 -31 6 -14 -2 -25 1 -25 6 0 6 -4 7 -10 4 -5 -3 -16 -3 -22 2 -14 8 -19
9 -61 11 -19 1 -26 6 -21 14 5 7 3 8 -7 2 -18 -11 -52 -6 -61 10 -5 7 -8 3 -8
-9 -1 -17 -2 -18 -13 -5 -16 20 -36 23 -53 9 -13 -10 -18 -6 -15 13 0 4 -6 5
-14 2 -8 -4 -12 -10 -9 -15 3 -5 -5 -5 -18 0 -13 5 -60 9 -103 9 -44 0 -82 1
-85 2 -3 1 -14 3 -25 5 -11 1 -29 6 -39 10 -15 6 -17 5 -11 -5 6 -10 4 -11 -6
-4 -8 5 -21 9 -29 9 -8 0 -14 6 -12 14 3 12 1 12 -13 1 -19 -16 -48 -23 -40
-10 3 5 1 11 -4 14 -5 4 -12 2 -16 -4 -3 -5 -11 -10 -16 -10 -6 0 -8 4 -5 9 3
5 -1 12 -10 15 -25 10 -36 7 -28 -6 5 -10 4 -10 -6 -1 -7 6 -19 9 -27 6 -8 -3
-21 3 -29 13 -8 11 -13 14 -12 8 2 -7 -1 -12 -7 -12 -5 -1 -9 5 -7 13 1 8 -5
12 -15 10 -10 -2 -18 -4 -18 -5 0 -1 -10 -3 -22 -6 -13 -2 -23 1 -23 7 0 5 5
7 10 4 15 -9 12 4 -4 21 -12 12 -16 10 -25 -14 l-11 -27 3 33 c4 35 -10 45
-15 10 -4 -30 -28 -36 -28 -7 0 22 0 22 -15 3 -11 -14 -15 -16 -15 -4 0 12 -4
10 -15 -4 -8 -11 -15 -14 -15 -8 0 7 -9 12 -19 12 -11 0 -22 6 -25 13 -4 6 -4
2 -2 -11 3 -18 1 -21 -8 -13 -7 6 -17 7 -21 3 -5 -4 -6 0 -2 9 4 13 1 16 -14
12 -11 -3 -22 -10 -26 -16 -3 -5 -1 -7 4 -4 6 4 16 0 22 -7 8 -10 9 -16 1 -21
-5 -3 -10 2 -10 12 -1 17 -2 16 -17 -2 -9 -11 -14 -14 -11 -5 3 8 -1 21 -8 28
-13 12 -18 8 -15 -12 1 -5 -5 -6 -13 -3 -9 4 -18 2 -22 -4 -3 -6 -11 -3 -20 8
-8 11 -13 13 -14 5 0 -10 -5 -10 -20 -2 -11 6 -17 16 -14 25 7 19 3 19 -13 0z
m10 -70 c-3 -9 -8 -14 -10 -11 -3 3 -2 9 2 15 9 16 15 13 8 -4z m-339 -67 c-3
-4 -9 -8 -15 -8 -5 0 -9 4 -9 8 0 5 7 9 15 9 8 0 12 -4 9 -9z"/>
<path d="M6051 6824 c0 -11 3 -14 6 -6 3 7 2 16 -1 19 -3 4 -6 -2 -5 -13z"/>
<path d="M6077 6833 c-4 -3 -7 -11 -7 -17 0 -6 5 -5 12 2 6 6 9 14 7 17 -3 3
-9 2 -12 -2z"/>
<path d="M4568 6813 c7 -3 16 -2 19 1 4 3 -2 6 -13 5 -11 0 -14 -3 -6 -6z"/>
<path d="M5880 6811 c0 -6 4 -13 10 -16 6 -3 7 1 4 9 -7 18 -14 21 -14 7z"/>
<path d="M4576 6775 c25 -19 40 -19 20 0 -8 8 -20 15 -27 15 -7 0 -4 -6 7 -15z"/>
<path d="M3485 6758 c2 -10 0 -30 -5 -43 -7 -19 -6 -23 5 -18 8 3 13 8 10 13
-2 4 2 16 10 26 19 25 19 31 -4 37 -15 4 -19 0 -16 -15z"/>
<path d="M4627 6733 c-12 -11 -8 -25 6 -20 10 4 12 -3 9 -24 -2 -17 0 -30 7
-30 6 -1 16 -2 21 -3 6 0 14 -6 18 -13 5 -7 13 -9 22 -3 11 7 11 11 1 24 -7 8
-18 14 -24 13 -7 -1 -11 5 -9 13 1 10 -2 9 -13 -4 -11 -15 -15 -16 -15 -5 0 8
5 20 11 26 6 6 8 16 5 22 -8 12 -29 15 -39 4z"/>
<path d="M5580 6710 c0 -5 5 -10 11 -10 5 0 7 5 4 10 -3 6 -8 10 -11 10 -2 0
-4 -4 -4 -10z"/>
<path d="M3236 6524 c-5 -14 -4 -15 9 -4 17 14 19 20 6 20 -5 0 -12 -7 -15
-16z"/>
<path d="M3455 6530 c-3 -5 -1 -10 4 -10 6 0 11 5 11 10 0 6 -2 10 -4 10 -3 0
-8 -4 -11 -10z"/>
<path d="M3140 6500 c0 -5 5 -10 11 -10 5 0 7 5 4 10 -3 6 -8 10 -11 10 -2 0
-4 -4 -4 -10z"/>
<path d="M3182 6490 c-17 -27 -15 -35 4 -16 8 9 14 21 12 26 -2 6 -9 1 -16
-10z"/>
<path d="M3097 6377 c-24 -20 -26 -25 -14 -42 12 -16 16 -16 33 -4 10 8 19 26
19 42 1 32 -2 33 -38 4z m23 -28 c0 -5 -4 -9 -10 -9 -5 0 -10 7 -10 16 0 8 5
12 10 9 6 -3 10 -10 10 -16z"/>
<path d="M2990 6269 c0 -5 5 -7 10 -4 6 3 10 8 10 11 0 2 -4 4 -10 4 -5 0 -10
-5 -10 -11z"/>
<path d="M3445 6260 c-3 -5 -1 -10 4 -10 6 0 11 5 11 10 0 6 -2 10 -4 10 -3 0
-8 -4 -11 -10z"/>
<path d="M3015 6250 c-3 -5 -1 -10 4 -10 6 0 11 5 11 10 0 6 -2 10 -4 10 -3 0
-8 -4 -11 -10z"/>
<path d="M6118 6169 c14 -15 16 -33 2 -24 -5 3 -10 2 -10 -3 0 -20 26 -19 50
0 25 20 25 21 2 14 -16 -5 -22 -4 -20 5 2 7 -6 15 -17 17 -16 3 -18 1 -7 -9z"/>
<path d="M2872 6130 c0 -14 2 -19 5 -12 2 6 2 18 0 25 -3 6 -5 1 -5 -13z"/>
<path d="M6081 6124 c0 -11 3 -14 6 -6 3 7 2 16 -1 19 -3 4 -6 -2 -5 -13z"/>
<path d="M3411 6114 c0 -11 3 -14 6 -6 3 7 2 16 -1 19 -3 4 -6 -2 -5 -13z"/>
<path d="M5917 6123 c-4 -3 -7 -13 -7 -22 1 -13 3 -13 11 2 11 19 8 33 -4 20z"/>
<path d="M6160 6119 c0 -5 5 -7 10 -4 6 3 10 8 10 11 0 2 -4 4 -10 4 -5 0 -10
-5 -10 -11z"/>
<path d="M6046 6105 c4 -8 14 -15 23 -14 10 0 11 2 3 6 -6 2 -10 9 -6 14 3 5
-2 9 -10 9 -10 0 -13 -6 -10 -15z"/>
<path d="M5999 6101 c11 -7 11 -9 0 -14 -8 -3 -1 -6 15 -6 28 -1 29 0 10 14
-10 8 -23 14 -29 15 -5 0 -4 -4 4 -9z"/>
<path d="M5761 6056 c27 -28 36 -27 19 3 -6 12 -18 21 -26 21 -13 0 -11 -5 7
-24z"/>
<path d="M5830 6059 c7 -11 14 -19 16 -16 7 7 -7 37 -17 37 -6 0 -5 -9 1 -21z"/>
<path d="M5897 6069 c7 -7 15 -10 18 -7 3 3 -2 9 -12 12 -14 6 -15 5 -6 -5z"/>
<path d="M5507 6030 c6 -23 14 -29 43 -35 12 -2 18 0 15 6 -4 5 -10 7 -15 4
-11 -7 -33 22 -25 35 3 5 0 10 -8 10 -10 0 -13 -7 -10 -20z"/>
<path d="M5800 6030 c0 -5 5 -10 10 -10 6 0 10 5 10 10 0 6 -4 10 -10 10 -5 0
-10 -4 -10 -10z"/>
<path d="M2815 5979 c-4 -6 -5 -12 -2 -15 2 -3 7 2 10 11 7 17 1 20 -8 4z"/>
<path d="M5560 5969 c0 -5 5 -7 10 -4 6 3 10 8 10 11 0 2 -4 4 -10 4 -5 0 -10
-5 -10 -11z"/>
<path d="M5531 5954 c4 -22 -2 -34 -16 -34 -9 0 -12 -6 -9 -15 4 -8 14 -15 23
-15 14 0 14 -2 1 -11 -13 -9 -13 -10 0 -6 10 2 14 14 12 36 -3 23 0 31 8 26 6
-4 9 -13 6 -21 -6 -15 3 -18 20 -6 7 4 1 15 -18 31 -16 13 -28 19 -27 15z"/>
<path d="M5590 5949 c-13 -9 -13 -10 2 -6 9 3 18 1 21 -6 2 -6 6 -4 10 6 7 19
-10 23 -33 6z"/>
<path d="M5640 5956 c0 -2 7 -7 16 -10 8 -3 12 -2 9 4 -6 10 -25 14 -25 6z"/>
<path d="M5730 5956 c0 -2 7 -7 16 -10 8 -3 12 -2 9 4 -6 10 -25 14 -25 6z"/>
<path d="M3427 5926 c-4 -10 -5 -21 -2 -24 9 -9 17 6 13 25 -3 17 -4 17 -11
-1z"/>
<path d="M5386 5918 c3 -5 10 -6 15 -3 13 9 11 12 -6 12 -8 0 -12 -4 -9 -9z"/>
<path d="M9342 5910 c-10 -16 -9 -25 6 -52 10 -18 19 -51 20 -73 l2 -40 -14
31 c-7 17 -17 45 -21 63 -4 17 -10 29 -15 26 -5 -3 -10 -1 -12 5 -2 6 -22 -8
-46 -31 -23 -23 -40 -34 -36 -25 10 26 -42 16 -57 -11 -7 -13 -16 -23 -21 -23
-4 0 -20 -13 -35 -30 -14 -16 -33 -30 -40 -30 -8 0 -11 -4 -8 -10 3 -5 0 -10
-7 -10 -8 0 -19 -5 -26 -12 -15 -15 -53 -18 -69 -6 -9 7 -16 -5 -27 -43 -9
-29 -16 -61 -16 -71 0 -10 -7 -18 -16 -18 -8 0 -13 4 -10 8 2 4 -4 8 -15 8
-10 0 -19 -1 -19 -3 0 -1 18 -30 40 -64 22 -34 40 -68 40 -75 0 -7 3 -20 6
-29 4 -9 3 -15 -2 -14 -11 3 -83 -10 -104 -18 -8 -3 -34 -6 -58 -7 -32 -1 -42
3 -42 15 0 9 -11 24 -24 35 -14 10 -23 21 -20 25 2 4 -5 10 -16 14 -11 3 -20
11 -20 17 0 5 -7 7 -16 4 -15 -6 -15 -4 -3 11 8 9 9 14 3 10 -7 -4 -14 0 -18
8 -3 8 -14 15 -24 15 -10 0 -27 6 -37 14 -26 19 -55 9 -55 -20 0 -12 -5 -26
-10 -29 -6 -3 -8 -16 -5 -28 5 -18 1 -22 -22 -24 -15 0 -29 -6 -31 -12 -5 -15
-29 -14 -35 2 -4 9 -6 9 -6 -1 -1 -7 -5 -10 -11 -7 -5 3 -10 5 -10 3 0 -2 -3
-33 -6 -69 -8 -80 13 -134 76 -203 93 -101 188 -136 317 -117 75 11 190 59
186 78 -2 7 62 9 191 6 276 -7 413 14 604 93 47 19 91 33 98 30 7 -3 20 -21
30 -42 25 -53 84 -77 192 -78 l84 -1 19 -49 c23 -62 51 -91 106 -112 42 -16
136 -16 163 1 13 8 13 65 1 65 -5 0 -17 7 -25 16 -20 20 -116 84 -125 84 -11
0 -32 50 -26 60 3 5 -2 15 -10 24 -8 8 -11 17 -6 20 4 3 7 24 5 46 -2 22 2 40
7 40 6 0 8 4 5 9 -3 5 1 12 10 15 9 4 14 9 11 13 -4 3 -2 14 4 24 8 16 6 21
-13 28 -28 10 -33 3 -42 -64 -11 -80 -29 -155 -38 -161 -5 -3 -20 1 -33 10
-13 9 -31 16 -39 16 -8 0 -27 11 -42 25 -29 27 -39 32 -28 14 5 -9 -23 3 -65
29 -2 1 -1 5 2 8 4 4 13 1 22 -6 22 -18 31 -5 11 15 -9 10 -23 14 -31 11 -9
-3 -15 0 -15 9 0 27 -1 30 -16 38 -18 10 -18 25 0 60 14 25 14 27 -7 28 -12 0
-16 3 -9 6 6 2 12 15 12 28 0 18 5 23 20 20 27 -5 25 9 -2 23 -13 6 -17 11
-10 11 17 1 15 21 -3 21 -8 0 -15 6 -15 14 0 8 -6 21 -13 28 -7 7 -20 26 -30
41 -10 15 -34 35 -53 44 -21 11 -33 22 -29 31 2 7 0 10 -5 7 -6 -3 -10 4 -11
17 -1 18 -3 17 -8 -8 -10 -42 -20 -56 -34 -47 -14 8 -86 22 -147 27 -25 2 -47
5 -50 6 -3 1 -8 2 -13 1 -16 -2 -73 35 -70 46 2 6 -6 14 -18 18 -15 5 -18 10
-9 15 8 5 7 9 -5 14 -11 4 -15 13 -12 26 3 13 -1 21 -15 26 -16 5 -18 8 -7 15
8 5 9 9 3 9 -6 0 -17 12 -25 28 -24 46 -38 52 -57 22z m-852 -509 c0 -6 23
-41 51 -78 48 -63 48 -65 13 -31 -43 41 -91 118 -74 118 5 0 10 -4 10 -9z"/>
<path d="M5465 5910 c3 -5 11 -10 16 -10 6 0 7 5 4 10 -3 6 -11 10 -16 10 -6
0 -7 -4 -4 -10z"/>
<path d="M5740 5879 c0 -5 -4 -8 -9 -4 -5 3 -12 1 -15 -4 -4 -5 2 -8 11 -7 15
3 33 26 19 26 -3 0 -6 -5 -6 -11z"/>
<path d="M5555 5860 c3 -5 10 -10 16 -10 5 0 9 5 9 10 0 6 -7 10 -16 10 -8 0
-12 -4 -9 -10z"/>
<path d="M5617 5864 c-3 -5 1 -15 9 -22 16 -14 18 -5 5 17 -5 7 -11 9 -14 5z"/>
<path d="M5667 5856 c-4 -10 -1 -13 8 -9 8 3 12 9 9 14 -7 12 -11 11 -17 -5z"/>
<path d="M2812 5820 c0 -19 2 -27 5 -17 2 9 2 25 0 35 -3 9 -5 1 -5 -18z"/>
<path d="M5490 5829 c0 -5 5 -7 10 -4 6 3 10 8 10 11 0 2 -4 4 -10 4 -5 0 -10
-5 -10 -11z"/>
<path d="M5456 5795 c-14 -22 -15 -25 -1 -25 8 0 15 7 15 16 0 20 19 8 30 -20
6 -14 9 -16 9 -5 1 9 -7 26 -18 38 l-19 21 -16 -25z"/>
<path d="M5580 5801 c0 -6 4 -13 10 -16 6 -3 7 1 4 9 -7 18 -14 21 -14 7z"/>
<path d="M5800 5796 c0 -2 7 -7 16 -10 8 -3 12 -2 9 4 -6 10 -25 14 -25 6z"/>
<path d="M3417 5766 c-4 -10 -1 -13 8 -9 8 3 12 9 9 14 -7 12 -11 11 -17 -5z"/>
<path d="M5520 5770 c0 -5 7 -7 15 -4 8 4 15 8 15 10 0 2 -7 4 -15 4 -8 0 -15
-4 -15 -10z"/>
<path d="M5730 5756 c0 -9 30 -14 35 -6 4 6 -3 10 -14 10 -12 0 -21 -2 -21 -4z"/>
<path d="M5560 5730 c0 -5 4 -10 9 -10 6 0 13 5 16 10 3 6 -1 10 -9 10 -9 0
-16 -4 -16 -10z"/>
<path d="M5310 5711 c0 -5 10 -13 21 -16 17 -6 19 -9 8 -16 -8 -5 -9 -9 -3 -9
21 0 24 14 7 32 -17 19 -33 24 -33 9z"/>
<path d="M5590 5711 c0 -5 5 -13 10 -16 6 -3 10 -2 10 4 0 5 -4 13 -10 16 -5
3 -10 2 -10 -4z"/>
<path d="M5540 5669 c0 -5 9 -9 20 -9 11 0 20 2 20 4 0 2 -9 6 -20 9 -11 3
-20 1 -20 -4z"/>
<path d="M5592 5655 c3 -19 48 -65 64 -65 5 0 -3 10 -17 23 -14 12 -31 31 -38
42 -11 20 -11 20 -9 0z"/>
<path d="M5450 5641 c14 -28 12 -36 -5 -21 -10 9 -15 9 -15 1 0 -18 4 -26 15
-26 6 -1 20 -6 32 -13 15 -8 24 -9 28 -2 4 6 1 9 -6 8 -7 -2 -21 14 -31 35
-10 20 -21 37 -23 37 -3 0 -1 -9 5 -19z"/>
<path d="M5680 5633 c0 -15 18 -35 27 -32 5 2 1 12 -9 22 -10 9 -18 14 -18 10z"/>
<path d="M5590 5600 c0 -6 7 -10 15 -10 8 0 15 2 15 4 0 2 -7 6 -15 10 -8 3
-15 1 -15 -4z"/>
<path d="M2780 5590 c-13 -8 -13 -10 2 -10 9 0 20 5 23 10 8 13 -5 13 -25 0z"/>
<path d="M5520 5591 c0 -6 4 -12 9 -15 4 -3 7 -17 6 -31 -2 -14 0 -25 5 -25
14 0 32 29 27 42 -4 8 -6 7 -6 -4 -1 -10 -5 -18 -11 -18 -5 0 -7 6 -4 14 3 8
0 17 -5 21 -6 3 -9 11 -6 16 4 5 1 9 -4 9 -6 0 -11 -4 -11 -9z"/>
<path d="M5330 5578 c0 -7 32 -13 53 -9 5 1 6 -3 2 -9 -3 -5 -1 -10 4 -10 6 0
11 5 11 10 0 6 5 10 12 10 6 0 8 -3 5 -6 -4 -4 3 -15 15 -25 25 -23 46 -25 24
-4 -9 9 -20 23 -25 33 -6 11 -23 17 -55 17 -25 1 -46 -2 -46 -7z"/>
<path d="M5690 5560 c8 -5 20 -10 25 -10 6 0 3 5 -5 10 -8 5 -19 10 -25 10 -5
0 -3 -5 5 -10z"/>
<path d="M5480 5550 c0 -5 10 -15 23 -21 22 -12 22 -12 3 10 -21 23 -26 26
-26 11z"/>
<path d="M5577 5541 c-3 -13 -1 -18 9 -14 7 2 10 11 7 19 -7 19 -10 18 -16 -5z"/>
<path d="M5340 5540 c0 -5 9 -10 21 -10 11 0 17 5 14 10 -3 6 -13 10 -21 10
-8 0 -14 -4 -14 -10z"/>
<path d="M5380 5520 c-10 -6 -11 -10 -2 -10 6 0 12 -7 12 -15 0 -17 16 -20 25
-5 3 6 2 10 -4 10 -5 0 -11 7 -13 15 -2 10 -7 12 -18 5z"/>
<path d="M5502 5496 c7 -8 17 -12 22 -9 4 3 2 9 -5 14 -22 13 -31 11 -17 -5z"/>
<path d="M5566 5498 c4 -5 12 -7 20 -4 8 3 14 1 14 -5 0 -5 -8 -13 -17 -16
-10 -4 -21 -11 -25 -17 -5 -7 -8 -7 -8 2 0 6 -7 12 -15 12 -18 0 -20 -16 -2
-23 9 -4 9 -6 -1 -6 -7 -1 -10 -6 -6 -12 3 -6 9 -7 13 -3 17 24 72 53 88 48
11 -4 9 0 -7 12 -25 19 -63 27 -54 12z"/>
<path d="M5650 5489 c0 -5 5 -7 12 -3 8 5 9 2 5 -9 -3 -9 -1 -19 5 -23 6 -4 8
-3 4 4 -3 5 0 13 6 15 10 4 9 8 -2 16 -19 14 -30 14 -30 0z"/>
<path d="M5727 5489 c7 -7 15 -10 18 -7 3 3 -2 9 -12 12 -14 6 -15 5 -6 -5z"/>
<path d="M5465 5470 c3 -5 8 -10 11 -10 2 0 4 5 4 10 0 6 -5 10 -11 10 -5 0
-7 -4 -4 -10z"/>
<path d="M5420 5455 c14 -17 30 -20 30 -4 0 5 -4 7 -10 4 -5 -3 -10 -1 -10 4
0 6 -5 11 -11 11 -8 0 -8 -5 1 -15z"/>
<path d="M8470 5450 c0 -5 5 -10 11 -10 5 0 7 5 4 10 -3 6 -8 10 -11 10 -2 0
-4 -4 -4 -10z"/>
<path d="M5456 5433 c-6 -14 -5 -15 5 -6 7 7 10 15 7 18 -3 3 -9 -2 -12 -12z"/>
<path d="M5620 5435 c14 -8 30 -14 35 -14 6 0 -1 6 -15 14 -14 8 -29 14 -35
14 -5 0 1 -6 15 -14z"/>
<path d="M5544 5417 c-18 -10 -20 -14 -9 -24 8 -7 16 -9 19 -5 3 5 18 8 33 7
17 -1 19 -1 6 2 -12 2 -23 10 -25 18 -2 11 -7 11 -24 2z"/>
<path d="M5634 5399 c-2 -4 5 -9 16 -12 12 -3 18 -1 14 5 -5 7 4 9 25 6 17 -2
31 -1 31 4 0 10 -79 7 -86 -3z"/>
<path d="M5400 5376 c0 -7 8 -20 17 -27 15 -12 16 -12 10 4 -4 10 -7 23 -7 28
0 5 -4 9 -10 9 -5 0 -10 -6 -10 -14z"/>
<path d="M5555 5360 c-13 -14 -22 -17 -29 -10 -13 13 -26 13 -26 0 0 -21 30
-22 55 -2 14 11 34 18 44 15 10 -3 21 -1 24 4 12 19 -50 13 -68 -7z"/>
<path d="M5450 5345 c7 -8 19 -15 27 -15 12 0 12 2 -1 15 -8 8 -20 15 -27 15
-9 0 -8 -4 1 -15z"/>
<path d="M5768 5353 c7 -3 16 -2 19 1 4 3 -2 6 -13 5 -11 0 -14 -3 -6 -6z"/>
<path d="M3395 5330 c-3 -5 -1 -10 4 -10 6 0 11 5 11 10 0 6 -2 10 -4 10 -3 0
-8 -4 -11 -10z"/>
<path d="M5585 5330 c-3 -5 -2 -10 4 -10 5 0 13 5 16 10 3 6 2 10 -4 10 -5 0
-13 -4 -16 -10z"/>
<path d="M5537 5312 c16 -10 -1 -36 -19 -29 -8 3 -21 1 -29 -4 -10 -6 -5 -9
18 -9 21 0 36 6 42 19 11 19 5 31 -13 31 -7 0 -7 -3 1 -8z"/>
<path d="M5690 5310 c-12 -8 -10 -10 8 -10 13 0 20 4 17 10 -7 12 -6 12 -25 0z"/>
<path d="M5608 5303 c7 -3 16 -2 19 1 4 3 -2 6 -13 5 -11 0 -14 -3 -6 -6z"/>
<path d="M5734 5290 c1 -8 10 -16 20 -18 11 -3 16 0 11 7 -3 6 -10 9 -15 6 -5
-3 -10 0 -13 7 -2 8 -3 7 -3 -2z"/>
<path d="M5654 5291 c4 -5 1 -12 -4 -14 -6 -3 -5 -4 2 -3 7 1 19 -4 26 -11 11
-10 17 -11 28 -2 22 18 16 30 -11 23 -15 -4 -25 -2 -25 5 0 6 -5 11 -11 11 -5
0 -8 -4 -5 -9z"/>
<path d="M5611 5281 c-8 -5 -21 -7 -30 -4 -13 4 -14 3 -2 -5 14 -10 51 0 51
13 0 7 -3 6 -19 -4z"/>
<path d="M5490 5254 c0 -6 7 -19 15 -30 8 -10 14 -14 14 -9 0 6 -6 19 -14 29
-8 11 -15 15 -15 10z"/>
<path d="M5649 5226 c10 -17 27 -36 38 -41 12 -6 28 -17 37 -24 13 -11 16 -11
16 0 0 12 2 12 9 1 7 -11 10 -10 15 3 9 26 7 42 -4 25 -8 -13 -10 -12 -10 4 0
14 5 17 25 12 14 -4 25 -4 25 -1 0 7 -50 26 -64 24 -5 0 -12 4 -15 9 -3 5 -15
6 -26 2 -17 -6 -14 -9 17 -15 24 -5 35 -11 32 -20 -8 -21 -28 -24 -55 -9 l-24
14 29 -6 c19 -5 27 -3 22 4 -3 5 -17 9 -31 7 -20 -2 -25 2 -25 20 0 12 -6 22
-14 22 -11 0 -10 -6 3 -31z"/>
<path d="M5781 5244 c6 -8 16 -14 22 -14 5 0 17 -8 26 -17 9 -10 25 -19 36
-21 15 -2 13 2 -8 13 -15 9 -26 19 -23 23 2 4 -11 12 -30 18 -28 9 -32 9 -23
-2z"/>
<path d="M5790 5183 c8 -3 21 -10 28 -16 9 -7 11 -6 6 7 -3 9 -16 16 -28 15
-14 0 -16 -2 -6 -6z"/>
<path d="M5790 5160 c0 -5 5 -10 11 -10 5 0 7 5 4 10 -3 6 -8 10 -11 10 -2 0
-4 -4 -4 -10z"/>
<path d="M5780 5136 c5 -5 27 -10 49 -11 22 -1 46 -7 54 -13 8 -7 17 -9 20 -5
4 3 7 1 7 -6 0 -7 5 -9 10 -6 6 3 10 11 10 16 0 6 -4 8 -9 5 -9 -6 -34 18 -27
25 2 2 -24 4 -59 4 -38 0 -60 -4 -55 -9z"/>
<path d="M5800 5094 c0 -14 33 -44 49 -44 7 0 9 5 6 10 -4 6 -10 8 -15 5 -5
-3 -16 5 -24 17 -9 12 -16 18 -16 12z"/>
<path d="M5936 5091 c-3 -5 1 -12 10 -15 22 -8 25 -4 9 11 -8 7 -16 9 -19 4z"/>
<path d="M3381 5074 c0 -11 3 -14 6 -6 3 7 2 16 -1 19 -3 4 -6 -2 -5 -13z"/>
<path d="M5870 5081 c0 -5 5 -13 10 -16 6 -3 10 -2 10 4 0 5 -4 13 -10 16 -5
3 -10 2 -10 -4z"/>
<path d="M5705 5061 l-30 -7 29 -6 c34 -7 59 0 50 13 -6 10 -5 10 -49 0z"/>
<path d="M5970 5051 c0 -5 7 -12 16 -15 14 -5 15 -4 4 9 -14 17 -20 19 -20 6z"/>
<path d="M5667 5004 c-9 -9 2 -24 17 -24 7 0 13 7 13 15 0 15 -18 20 -30 9z"/>
<path d="M5728 4993 c12 -2 22 -8 22 -13 0 -4 8 -7 18 -5 23 3 54 -13 47 -26
-4 -5 -1 -9 4 -9 17 0 13 15 -8 34 -11 10 -25 15 -30 11 -6 -3 -11 -1 -11 4 0
6 -15 10 -32 10 -24 -1 -27 -3 -10 -6z"/>
<path d="M5850 4975 c0 -8 4 -15 10 -15 5 0 7 7 4 15 -4 8 -8 15 -10 15 -2 0
-4 -7 -4 -15z"/>
<path d="M5930 4969 c0 -5 -4 -7 -10 -4 -5 3 -10 2 -10 -3 0 -12 29 -24 41
-16 5 3 9 11 8 17 0 9 -2 9 -6 0 -2 -7 -9 -13 -14 -13 -4 0 -6 7 -3 15 4 8 3
15 0 15 -3 0 -6 -5 -6 -11z"/>
<path d="M5885 4931 c-3 -5 -2 -12 3 -15 5 -3 9 1 9 9 0 17 -3 19 -12 6z"/>
<path d="M3377 4891 c-4 -17 -3 -21 5 -13 5 5 8 16 6 23 -3 8 -7 3 -11 -10z"/>
<path d="M5890 4890 c0 -6 7 -10 15 -10 8 0 15 2 15 4 0 2 -7 6 -15 10 -8 3
-15 1 -15 -4z"/>
<path d="M1810 4831 c-52 -52 -73 -91 -83 -153 -6 -41 -1 -46 29 -23 22 17 54
20 54 4 0 -6 7 -4 15 5 25 25 142 15 210 -19 69 -33 184 -124 246 -193 58 -64
123 -173 146 -243 l17 -54 62 60 c61 58 103 128 83 140 -5 4 -5 14 2 26 10 19
9 19 -10 9 -19 -10 -25 -7 -23 11 1 4 -6 6 -16 5 -12 -1 -16 6 -15 20 2 14 -4
24 -17 27 -11 3 -24 16 -30 29 -15 37 -41 65 -47 50 -4 -10 -8 -10 -19 -1 -8
6 -11 16 -8 21 3 5 0 9 -7 7 -27 -3 -40 1 -34 11 3 6 2 10 -3 10 -5 0 -21 11
-36 25 -15 14 -34 25 -42 25 -7 0 -14 4 -14 8 0 5 -10 14 -22 21 -13 6 -36 20
-53 31 -16 11 -37 23 -45 27 -8 3 -29 17 -46 30 -17 12 -34 20 -37 16 -4 -3
-27 15 -52 40 -25 26 -45 43 -45 37 0 -14 -27 -12 -37 3 -7 11 -55 37 -69 37
-3 0 -27 -22 -54 -49z"/>
<path d="M5944 4871 c4 -5 1 -12 -4 -14 -6 -3 -5 -4 2 -3 15 3 23 26 8 26 -6
0 -9 -4 -6 -9z"/>
<path d="M5953 4829 c3 -9 0 -22 -6 -28 -9 -9 -8 -11 6 -6 10 4 17 2 17 -4 0
-6 10 -11 23 -11 18 0 19 -2 7 -10 -13 -8 -12 -10 3 -10 29 0 17 24 -32 65
-20 16 -23 17 -18 4z"/>
<path d="M6030 4820 c0 -5 7 -7 15 -4 8 4 15 8 15 10 0 2 -7 4 -15 4 -8 0 -15
-4 -15 -10z"/>
<path d="M2792 4800 c0 -14 2 -19 5 -12 2 6 2 18 0 25 -3 6 -5 1 -5 -13z"/>
<path d="M2811 4803 c0 -13 7 -27 19 -33 16 -9 18 -8 14 5 -3 8 -10 13 -14 10
-5 -3 -11 5 -13 17 l-4 23 -2 -22z"/>
<path d="M6160 4780 c-7 -5 -2 -9 14 -12 14 -3 26 -1 26 4 0 5 5 6 10 3 6 -3
10 -2 10 3 0 11 -43 13 -60 2z"/>
<path d="M6107 4759 c7 -26 19 -32 20 -9 1 10 -4 21 -12 23 -9 4 -11 -1 -8
-14z"/>
<path d="M6045 4760 c3 -5 8 -10 11 -10 2 0 4 5 4 10 0 6 -5 10 -11 10 -5 0
-7 -4 -4 -10z"/>
<path d="M6260 4760 c0 -13 18 -22 24 -11 3 5 -1 11 -9 15 -8 3 -15 1 -15 -4z"/>
<path d="M6146 4745 c4 -8 12 -15 20 -15 20 0 17 7 -6 20 -16 9 -18 8 -14 -5z"/>
<path d="M6271 4696 c-7 -8 0 -11 24 -12 36 0 39 10 6 19 -11 3 -25 0 -30 -7z"/>
<path d="M6448 4683 c7 -3 16 -2 19 1 4 3 -2 6 -13 5 -11 0 -14 -3 -6 -6z"/>
<path d="M2802 4612 c-11 -25 -11 -25 4 -10 9 9 15 21 13 27 -2 6 -10 -2 -17
-17z"/>
<path d="M2812 4280 c0 -14 2 -19 5 -12 2 6 2 18 0 25 -3 6 -5 1 -5 -13z"/>
<path d="M1400 4194 c0 -8 5 -12 10 -9 6 3 10 10 10 16 0 5 -4 9 -10 9 -5 0
-10 -7 -10 -16z"/>
<path d="M1276 4144 c-5 -14 -4 -15 9 -4 17 14 19 20 6 20 -5 0 -12 -7 -15
-16z"/>
<path d="M1370 4137 c-12 -21 -12 -21 6 -7 10 8 20 15 22 16 2 1 -1 4 -5 7 -5
3 -15 -4 -23 -16z"/>
<path d="M1222 4130 c-12 -11 -26 -20 -32 -20 -12 0 -12 -3 -4 -24 3 -9 13
-16 21 -16 9 0 13 6 10 14 -4 10 -1 13 8 10 9 -4 12 1 11 13 -2 10 2 21 8 25
6 4 8 9 5 12 -3 3 -15 -3 -27 -14z"/>
<path d="M1290 4097 c11 -11 21 -30 21 -41 1 -20 1 -21 6 -1 3 11 9 25 14 30
12 16 -3 30 -33 32 l-28 2 20 -22z"/>
<path d="M1346 4079 c-11 -11 -15 -19 -9 -19 12 0 38 28 32 34 -2 2 -13 -5
-23 -15z"/>
<path d="M1168 4068 c3 -13 1 -19 -5 -15 -7 5 -9 0 -6 -13 3 -11 10 -20 15
-20 5 0 7 4 3 9 -3 5 -1 12 5 16 5 3 10 -3 10 -14 0 -12 -5 -21 -11 -21 -5 0
-7 -6 -4 -12 4 -7 -1 -4 -9 6 -9 11 -16 23 -16 28 0 4 -12 8 -27 7 -16 0 -23
-3 -16 -6 8 -3 3 -13 -14 -29 -27 -25 -50 -33 -37 -12 5 7 3 8 -5 3 -8 -4 -9
-11 -3 -17 11 -11 -62 -88 -101 -105 -15 -7 -27 -21 -27 -30 0 -15 -2 -16 -10
-3 -9 13 -10 13 -11 0 -1 -8 -1 -19 0 -23 1 -5 -3 -6 -9 -2 -6 3 -14 -4 -19
-17 -6 -13 -10 -17 -10 -9 -3 54 -52 -103 -56 -177 -6 -109 48 -218 159 -320
68 -63 136 -92 217 -92 44 0 89 -8 140 -26 61 -21 85 -25 140 -20 62 5 68 4
120 -29 77 -50 109 -57 206 -43 73 11 87 10 119 -5 101 -49 340 -18 429 56 56
45 128 204 150 329 4 21 11 35 16 32 5 -3 9 0 9 5 0 6 -5 11 -11 11 -6 0 -9 7
-5 15 6 17 -5 20 -20 5 -12 -12 -124 69 -124 91 0 15 -37 57 -46 52 -12 -8
-25 -1 -21 10 4 10 -2 13 -19 9 -17 -3 -24 0 -24 11 0 11 6 13 22 9 13 -3 19
-1 15 5 -4 6 -16 13 -27 16 -11 3 -18 1 -14 -4 6 -11 -7 -12 -22 -1 -7 4 -8
15 -3 27 4 11 8 14 8 8 1 -7 6 -13 11 -13 7 0 7 6 0 20 -6 11 -14 19 -18 19
-19 -3 -31 3 -57 29 l-28 27 8 -25 c7 -22 6 -23 -8 -11 -9 7 -15 16 -12 20 7
12 -73 88 -87 84 -5 -2 -8 3 -8 11 0 8 -4 17 -9 20 -4 3 -6 -7 -4 -22 l5 -27
-23 32 c-13 18 -30 35 -37 38 -7 3 -4 -7 7 -21 12 -15 21 -36 20 -48 0 -21 -1
-21 -9 -1 -5 11 -9 16 -9 10 -1 -5 -5 -3 -11 5 -8 13 -10 12 -15 -1 -4 -11
-15 -14 -37 -11 -25 4 -30 2 -25 -10 3 -9 1 -20 -4 -25 -7 -7 -7 -34 0 -79 14
-90 15 -95 30 -123 12 -21 11 -26 -3 -37 -13 -9 -14 -13 -4 -17 9 -4 7 -6 -4
-6 -11 -1 -15 -6 -12 -15 3 -9 -3 -17 -15 -21 -31 -10 -26 -25 25 -75 43 -42
91 -115 86 -132 -1 -5 3 -8 8 -8 17 0 11 -37 -6 -44 -9 -4 -19 -4 -22 -1 -3 3
1 5 8 5 7 0 1 9 -13 20 -14 11 -30 20 -37 20 -6 0 -9 4 -6 9 3 5 -2 8 -12 7
-11 0 -16 6 -16 17 1 9 -3 16 -10 15 -18 -4 -63 31 -69 53 -3 12 -10 18 -15
15 -9 -6 -21 11 -18 26 0 3 -11 17 -26 30 -16 13 -28 30 -28 37 0 9 -8 12 -25
9 -14 -3 -25 -1 -25 3 0 5 -7 6 -15 3 -9 -4 -15 0 -15 10 0 9 -3 15 -7 15 -26
-4 -33 2 -24 20 8 14 7 22 -4 31 -9 7 -18 10 -22 7 -3 -4 -15 -1 -27 5 -11 7
-25 11 -30 10 -5 -2 -6 4 -3 13 6 13 1 17 -19 14 -4 0 -11 5 -15 13 -7 10 -9
10 -9 -1 0 -13 -2 -13 -12 -2 -10 11 -10 14 0 18 6 3 12 9 12 15 0 6 -7 7 -16
4 -8 -3 -13 -2 -11 2 3 4 -1 13 -9 20 -15 14 -18 8 -14 -35 1 -13 -3 -23 -9
-23 -6 0 -11 7 -11 16 0 8 -4 13 -9 9 -6 -3 -15 3 -21 14 -7 13 -7 22 0 26 17
11 11 23 -16 29 -25 7 -25 8 -9 26 17 19 4 23 -22 7 -7 -5 -13 -4 -13 1 0 6
-10 8 -22 5 -13 -3 -20 -3 -17 0 3 4 16 8 30 10 22 4 26 23 4 21 -6 -1 -10 23
-10 55 1 46 4 57 19 59 13 3 16 0 11 -9 -6 -8 -4 -10 4 -5 7 5 10 14 7 21 -2
7 0 17 5 22 6 6 4 10 -5 10 -8 0 -14 -5 -13 -10 1 -5 -4 -12 -12 -15 -8 -2
-11 -1 -8 4 3 5 -5 9 -18 9 -13 0 -21 -3 -19 -7 10 -16 -19 -18 -31 -2 -12 15
-15 16 -16 4 -1 -8 -1 -18 0 -22 0 -4 -6 -5 -14 -1 -10 3 -12 9 -6 17 6 7 5
22 -4 42 -16 38 -36 54 -27 22z m88 -112 c-2 -14 3 -27 11 -30 10 -4 12 1 7
19 -3 14 -2 25 3 25 5 0 9 -12 8 -27 0 -22 -4 -27 -20 -25 -25 5 -22 2 -30 35
-6 20 -4 27 8 27 10 0 14 -8 13 -24z m-81 -74 c-3 -3 -11 0 -18 7 -9 10 -8 11
6 5 10 -3 15 -9 12 -12z m43 -4 c-2 -6 -13 -12 -24 -14 -19 -3 -19 -3 0 12 24
17 29 18 24 2z m28 -4 c-9 -8 -16 -18 -16 -22 0 -3 5 -1 12 6 17 17 29 15 22
-3 -3 -8 -16 -14 -29 -13 -21 2 -22 4 -8 25 9 13 20 23 25 23 5 0 2 -7 -6 -16z
m103 -128 c9 -10 8 -15 -4 -20 -8 -3 -15 -4 -15 -2 0 3 -3 11 -6 20 -8 20 9
21 25 2z m238 -111 c0 -8 -4 -12 -9 -9 -4 3 -8 9 -8 15 0 5 4 9 8 9 5 0 9 -7
9 -15z m708 5 c3 -5 1 -10 -4 -10 -6 0 -11 5 -11 10 0 6 2 10 4 10 3 0 8 -4
11 -10z m-465 -240 c0 -5 -2 -10 -4 -10 -3 0 -8 5 -11 10 -3 6 -1 10 4 10 6 0
11 -4 11 -10z"/>
<path d="M1345 3960 c-3 -5 -4 -10 0 -10 3 0 1 -9 -5 -20 -8 -15 -8 -20 2 -20
8 0 13 12 13 30 1 33 -1 35 -10 20z"/>
<path d="M1878 3913 c7 -3 16 -2 19 1 4 3 -2 6 -13 5 -11 0 -14 -3 -6 -6z"/>
<path d="M7366 2422 c-3 -5 1 -9 9 -9 8 0 15 4 15 9 0 4 -4 8 -9 8 -6 0 -12
-4 -15 -8z"/>
<path d="M7320 2376 c0 -9 5 -16 10 -16 6 0 10 4 10 9 0 6 -4 13 -10 16 -5 3
-10 -1 -10 -9z"/>
<path d="M7380 2360 c0 -5 7 -7 15 -4 8 4 15 8 15 10 0 2 -7 4 -15 4 -8 0 -15
-4 -15 -10z"/>
<path d="M3250 1869 c0 -5 5 -7 10 -4 6 3 10 8 10 11 0 2 -4 4 -10 4 -5 0 -10
-5 -10 -11z"/>
</g>
</svg>
