<?xml version="1.0" encoding="UTF-8"?>
<svg xmlns="http://www.w3.org/2000/svg" xmlns:xlink="http://www.w3.org/1999/xlink" width="131px" height="30px" viewBox="0 0 131 30" version="1.1">
<g id="surface1">
<path style=" stroke:none;fill-rule:nonzero;fill:rgb(12.54902%,50.588235%,88.627451%);fill-opacity:1;" d="M 29.976562 15 C 29.976562 23.285156 23.265625 30 14.988281 30 C 6.710938 30 0 23.285156 0 15 C 0 6.714844 6.710938 0 14.988281 0 C 23.269531 0 29.976562 6.714844 29.976562 15 Z M 29.976562 15 "/>
<path style=" stroke:none;fill-rule:nonzero;fill:rgb(100%,100%,100%);fill-opacity:1;" d="M 7.394531 15.503906 L 7.460938 15.402344 L 11.359375 9.296875 C 11.414062 9.207031 11.550781 9.21875 11.59375 9.316406 C 12.242188 10.777344 12.804688 12.59375 12.542969 13.722656 C 12.429688 14.191406 12.121094 14.820312 11.777344 15.402344 C 11.730469 15.488281 11.683594 15.570312 11.628906 15.652344 C 11.605469 15.6875 11.5625 15.710938 11.519531 15.710938 L 7.507812 15.710938 C 7.402344 15.710938 7.335938 15.59375 7.394531 15.503906 Z M 7.394531 15.503906 "/>
<path style=" stroke:none;fill-rule:nonzero;fill:rgb(100%,100%,100%);fill-opacity:1;" d="M 24.773438 16.636719 L 24.773438 17.605469 C 24.773438 17.660156 24.742188 17.710938 24.691406 17.730469 C 24.390625 17.859375 23.355469 18.335938 22.925781 18.933594 C 21.828125 20.460938 20.992188 22.644531 19.121094 22.644531 L 11.308594 22.644531 C 8.539062 22.644531 6.296875 20.390625 6.296875 17.609375 L 6.296875 17.519531 C 6.296875 17.449219 6.355469 17.386719 6.429688 17.386719 L 10.785156 17.386719 C 10.871094 17.386719 10.933594 17.46875 10.925781 17.550781 C 10.894531 17.835938 10.949219 18.125 11.082031 18.390625 C 11.339844 18.914062 11.875 19.242188 12.453125 19.242188 L 14.609375 19.242188 L 14.609375 17.558594 L 12.480469 17.558594 C 12.371094 17.558594 12.304688 17.433594 12.367188 17.34375 C 12.390625 17.308594 12.417969 17.269531 12.445312 17.230469 C 12.648438 16.941406 12.933594 16.496094 13.222656 15.988281 C 13.417969 15.648438 13.605469 15.28125 13.757812 14.914062 C 13.789062 14.847656 13.816406 14.78125 13.839844 14.714844 C 13.882812 14.597656 13.925781 14.488281 13.953125 14.378906 C 13.984375 14.285156 14.011719 14.191406 14.035156 14.097656 C 14.105469 13.789062 14.136719 13.457031 14.136719 13.117188 C 14.136719 12.980469 14.132812 12.839844 14.121094 12.707031 C 14.113281 12.558594 14.09375 12.414062 14.078125 12.269531 C 14.0625 12.136719 14.042969 12.011719 14.015625 11.875 C 13.984375 11.679688 13.941406 11.488281 13.894531 11.289062 L 13.875 11.214844 C 13.839844 11.082031 13.808594 10.953125 13.765625 10.820312 C 13.644531 10.398438 13.503906 9.988281 13.355469 9.605469 C 13.300781 9.453125 13.242188 9.308594 13.179688 9.160156 C 13.085938 8.941406 12.996094 8.738281 12.910156 8.550781 C 12.867188 8.464844 12.832031 8.386719 12.792969 8.304688 C 12.753906 8.214844 12.710938 8.125 12.664062 8.039062 C 12.636719 7.972656 12.601562 7.910156 12.574219 7.847656 L 12.3125 7.359375 C 12.273438 7.292969 12.335938 7.214844 12.410156 7.234375 L 14.054688 7.683594 L 14.0625 7.683594 C 14.0625 7.683594 14.066406 7.683594 14.066406 7.683594 L 14.285156 7.746094 L 14.523438 7.8125 L 14.609375 7.835938 L 14.609375 6.855469 C 14.609375 6.382812 14.988281 6 15.457031 6 C 15.691406 6 15.90625 6.09375 16.058594 6.25 C 16.210938 6.40625 16.304688 6.621094 16.304688 6.855469 L 16.304688 8.3125 L 16.480469 8.359375 C 16.496094 8.367188 16.507812 8.371094 16.519531 8.382812 C 16.5625 8.414062 16.625 8.460938 16.703125 8.519531 C 16.765625 8.570312 16.832031 8.628906 16.910156 8.691406 C 17.070312 8.820312 17.257812 8.984375 17.46875 9.171875 C 17.523438 9.222656 17.578125 9.269531 17.625 9.320312 C 17.894531 9.570312 18.195312 9.863281 18.480469 10.1875 C 18.5625 10.277344 18.640625 10.367188 18.71875 10.464844 C 18.800781 10.566406 18.882812 10.660156 18.957031 10.757812 C 19.054688 10.886719 19.160156 11.023438 19.25 11.164062 C 19.292969 11.230469 19.34375 11.296875 19.382812 11.363281 C 19.5 11.539062 19.605469 11.722656 19.703125 11.90625 C 19.746094 11.992188 19.789062 12.085938 19.824219 12.175781 C 19.933594 12.421875 20.019531 12.671875 20.074219 12.917969 C 20.09375 12.972656 20.105469 13.03125 20.113281 13.085938 L 20.113281 13.097656 C 20.128906 13.171875 20.136719 13.25 20.140625 13.328125 C 20.167969 13.585938 20.15625 13.839844 20.097656 14.097656 C 20.074219 14.207031 20.046875 14.3125 20.007812 14.421875 C 19.972656 14.527344 19.933594 14.636719 19.886719 14.738281 C 19.792969 14.953125 19.683594 15.167969 19.554688 15.367188 C 19.515625 15.441406 19.464844 15.519531 19.414062 15.59375 C 19.363281 15.671875 19.304688 15.746094 19.257812 15.820312 C 19.1875 15.910156 19.117188 16.007812 19.042969 16.09375 C 18.976562 16.183594 18.910156 16.277344 18.835938 16.355469 C 18.730469 16.476562 18.632812 16.59375 18.53125 16.703125 C 18.46875 16.777344 18.402344 16.851562 18.335938 16.917969 C 18.269531 16.992188 18.199219 17.058594 18.140625 17.117188 C 18.035156 17.222656 17.949219 17.300781 17.878906 17.367188 L 17.707031 17.523438 C 17.683594 17.546875 17.652344 17.558594 17.617188 17.558594 L 16.304688 17.558594 L 16.304688 19.242188 L 17.957031 19.242188 C 18.324219 19.242188 18.675781 19.113281 18.960938 18.871094 C 19.054688 18.785156 19.480469 18.417969 19.980469 17.867188 C 19.996094 17.847656 20.019531 17.835938 20.042969 17.828125 L 24.601562 16.507812 C 24.6875 16.484375 24.773438 16.550781 24.773438 16.636719 Z M 24.773438 16.636719 "/>
<path style=" stroke:none;fill-rule:nonzero;fill:rgb(1.568627%,6.666667%,11.372549%);fill-opacity:1;" d="M 44.582031 22.199219 C 43.226562 22.199219 41.980469 21.894531 40.847656 21.289062 C 39.722656 20.679688 38.828125 19.835938 38.15625 18.75 C 37.5 17.652344 37.171875 16.425781 37.171875 15.066406 C 37.171875 13.703125 37.5 12.480469 38.15625 11.398438 C 38.828125 10.316406 39.722656 9.46875 40.847656 8.863281 C 41.980469 8.253906 43.226562 7.949219 44.582031 7.949219 C 45.9375 7.949219 47.175781 8.253906 48.300781 8.863281 C 49.433594 9.46875 50.324219 10.316406 50.96875 11.398438 C 51.625 12.480469 51.953125 13.703125 51.953125 15.066406 C 51.953125 16.425781 51.625 17.652344 50.96875 18.75 C 50.3125 19.835938 49.421875 20.679688 48.300781 21.289062 C 47.175781 21.894531 45.9375 22.199219 44.582031 22.199219 Z M 44.582031 19.105469 C 45.734375 19.105469 46.648438 18.738281 47.332031 17.996094 C 48.03125 17.257812 48.382812 16.28125 48.382812 15.066406 C 48.382812 13.835938 48.03125 12.859375 47.332031 12.132812 C 46.648438 11.390625 45.734375 11.023438 44.582031 11.023438 C 43.417969 11.023438 42.488281 11.386719 41.789062 12.113281 C 41.105469 12.839844 40.765625 13.824219 40.765625 15.066406 C 40.765625 16.292969 41.105469 17.277344 41.789062 18.015625 C 42.488281 18.742188 43.417969 19.105469 44.582031 19.105469 Z M 44.582031 19.105469 "/>
<path style=" stroke:none;fill-rule:nonzero;fill:rgb(1.568627%,6.666667%,11.372549%);fill-opacity:1;" d="M 57.417969 12.566406 C 57.757812 12.050781 58.230469 11.636719 58.832031 11.320312 C 59.4375 11 60.140625 10.84375 60.949219 10.84375 C 61.890625 10.84375 62.746094 11.074219 63.515625 11.535156 C 64.28125 12 64.882812 12.660156 65.320312 13.519531 C 65.773438 14.378906 66 15.375 66 16.511719 C 66 17.648438 65.773438 18.652344 65.320312 19.523438 C 64.882812 20.382812 64.28125 21.050781 63.515625 21.523438 C 62.746094 21.988281 61.890625 22.21875 60.949219 22.21875 C 60.152344 22.21875 59.449219 22.058594 58.832031 21.742188 C 58.230469 21.425781 57.757812 21.015625 57.417969 20.515625 L 57.417969 25.351562 L 53.90625 25.351562 L 53.90625 11 L 57.417969 11 Z M 62.425781 16.511719 C 62.425781 15.664062 62.179688 15.003906 61.6875 14.53125 C 61.207031 14.039062 60.613281 13.796875 59.902344 13.796875 C 59.203125 13.796875 58.609375 14.039062 58.113281 14.53125 C 57.636719 15.019531 57.394531 15.683594 57.394531 16.53125 C 57.394531 17.375 57.636719 18.042969 58.113281 18.53125 C 58.609375 19.023438 59.203125 19.265625 59.902344 19.265625 C 60.597656 19.265625 61.195312 19.023438 61.6875 18.53125 C 62.179688 18.03125 62.425781 17.355469 62.425781 16.511719 Z M 62.425781 16.511719 "/>
<path style=" stroke:none;fill-rule:nonzero;fill:rgb(1.568627%,6.666667%,11.372549%);fill-opacity:1;" d="M 78.636719 16.351562 C 78.636719 16.667969 78.617188 17 78.578125 17.34375 L 70.632812 17.34375 C 70.6875 18.03125 70.914062 18.558594 71.308594 18.929688 C 71.71875 19.285156 72.21875 19.464844 72.808594 19.464844 C 73.683594 19.464844 74.292969 19.105469 74.636719 18.394531 L 78.371094 18.394531 C 78.179688 19.121094 77.832031 19.773438 77.324219 20.355469 C 76.832031 20.9375 76.210938 21.394531 75.457031 21.722656 C 74.703125 22.054688 73.863281 22.21875 72.929688 22.21875 C 71.808594 22.21875 70.808594 21.988281 69.933594 21.523438 C 69.058594 21.0625 68.375 20.402344 67.882812 19.542969 C 67.386719 18.683594 67.140625 17.679688 67.140625 16.53125 C 67.140625 15.382812 67.382812 14.378906 67.859375 13.519531 C 68.351562 12.660156 69.039062 12 69.914062 11.535156 C 70.789062 11.074219 71.796875 10.84375 72.929688 10.84375 C 74.039062 10.84375 75.027344 11.066406 75.886719 11.515625 C 76.75 11.964844 77.421875 12.605469 77.898438 13.441406 C 78.390625 14.273438 78.636719 15.242188 78.636719 16.351562 Z M 75.046875 15.460938 C 75.046875 14.878906 74.839844 14.417969 74.429688 14.074219 C 74.019531 13.730469 73.507812 13.558594 72.890625 13.558594 C 72.300781 13.558594 71.800781 13.722656 71.390625 14.054688 C 70.996094 14.382812 70.75 14.851562 70.652344 15.460938 Z M 75.046875 15.460938 "/>
<path style=" stroke:none;fill-rule:nonzero;fill:rgb(1.568627%,6.666667%,11.372549%);fill-opacity:1;" d="M 87.472656 10.882812 C 88.8125 10.882812 89.878906 11.304688 90.671875 12.152344 C 91.480469 12.984375 91.886719 14.132812 91.886719 15.601562 L 91.886719 22.058594 L 88.394531 22.058594 L 88.394531 16.054688 C 88.394531 15.316406 88.195312 14.742188 87.800781 14.332031 C 87.402344 13.921875 86.867188 13.71875 86.199219 13.71875 C 85.527344 13.71875 84.992188 13.921875 84.597656 14.332031 C 84.199219 14.742188 84 15.316406 84 16.054688 L 84 22.058594 L 80.492188 22.058594 L 80.492188 11 L 84 11 L 84 12.46875 C 84.355469 11.980469 84.835938 11.597656 85.4375 11.320312 C 86.039062 11.027344 86.71875 10.882812 87.472656 10.882812 Z M 87.472656 10.882812 "/>
<path style=" stroke:none;fill-rule:nonzero;fill:rgb(1.568627%,6.666667%,11.372549%);fill-opacity:1;" d="M 99.539062 22.199219 C 98.484375 22.199219 97.539062 22.035156 96.707031 21.703125 C 95.871094 21.375 95.199219 20.882812 94.695312 20.238281 C 94.203125 19.589844 93.941406 18.808594 93.914062 17.898438 L 97.648438 17.898438 C 97.703125 18.414062 97.890625 18.808594 98.203125 19.085938 C 98.519531 19.351562 98.929688 19.484375 99.4375 19.484375 C 99.957031 19.484375 100.367188 19.371094 100.667969 19.148438 C 100.96875 18.910156 101.121094 18.585938 101.121094 18.175781 C 101.121094 17.832031 100.996094 17.546875 100.75 17.324219 C 100.519531 17.097656 100.222656 16.914062 99.867188 16.769531 C 99.523438 16.625 99.03125 16.457031 98.390625 16.273438 C 97.457031 15.996094 96.699219 15.71875 96.109375 15.441406 C 95.523438 15.164062 95.015625 14.753906 94.589844 14.210938 C 94.167969 13.671875 93.953125 12.964844 93.953125 12.09375 C 93.953125 10.796875 94.441406 9.785156 95.414062 9.058594 C 96.382812 8.320312 97.648438 7.949219 99.210938 7.949219 C 100.796875 7.949219 102.078125 8.320312 103.050781 9.058594 C 104.023438 9.785156 104.542969 10.804688 104.609375 12.113281 L 100.8125 12.113281 C 100.785156 11.664062 100.613281 11.3125 100.296875 11.0625 C 99.984375 10.796875 99.582031 10.664062 99.085938 10.664062 C 98.664062 10.664062 98.320312 10.777344 98.0625 11 C 97.800781 11.214844 97.671875 11.523438 97.671875 11.933594 C 97.671875 12.382812 97.890625 12.734375 98.328125 12.984375 C 98.765625 13.234375 99.449219 13.503906 100.378906 13.796875 C 101.3125 14.101562 102.0625 14.390625 102.640625 14.667969 C 103.226562 14.945312 103.734375 15.347656 104.15625 15.878906 C 104.582031 16.40625 104.792969 17.085938 104.792969 17.917969 C 104.792969 18.710938 104.582031 19.429688 104.15625 20.078125 C 103.746094 20.726562 103.144531 21.242188 102.351562 21.625 C 101.558594 22.007812 100.621094 22.199219 99.539062 22.199219 Z M 99.539062 22.199219 "/>
<path style=" stroke:none;fill-rule:nonzero;fill:rgb(1.568627%,6.666667%,11.372549%);fill-opacity:1;" d="M 117.753906 16.351562 C 117.753906 16.667969 117.734375 17 117.691406 17.34375 L 109.746094 17.34375 C 109.800781 18.03125 110.027344 18.558594 110.425781 18.929688 C 110.835938 19.285156 111.335938 19.464844 111.921875 19.464844 C 112.800781 19.464844 113.410156 19.105469 113.75 18.394531 L 117.488281 18.394531 C 117.296875 19.121094 116.945312 19.773438 116.441406 20.355469 C 115.949219 20.9375 115.324219 21.394531 114.570312 21.722656 C 113.820312 22.054688 112.976562 22.21875 112.046875 22.21875 C 110.925781 22.21875 109.925781 21.988281 109.050781 21.523438 C 108.171875 21.0625 107.488281 20.402344 106.996094 19.542969 C 106.503906 18.683594 106.257812 17.679688 106.257812 16.53125 C 106.257812 15.382812 106.496094 14.378906 106.976562 13.519531 C 107.46875 12.660156 108.152344 12 109.027344 11.535156 C 109.90625 11.074219 110.910156 10.84375 112.046875 10.84375 C 113.15625 10.84375 114.140625 11.066406 115.003906 11.515625 C 115.863281 11.964844 116.535156 12.605469 117.015625 13.441406 C 117.507812 14.273438 117.753906 15.242188 117.753906 16.351562 Z M 114.160156 15.460938 C 114.160156 14.878906 113.957031 14.417969 113.546875 14.074219 C 113.132812 13.730469 112.621094 13.558594 112.003906 13.558594 C 111.417969 13.558594 110.917969 13.722656 110.507812 14.054688 C 110.109375 14.382812 109.863281 14.851562 109.769531 15.460938 Z M 114.160156 15.460938 "/>
<path style=" stroke:none;fill-rule:nonzero;fill:rgb(1.568627%,6.666667%,11.372549%);fill-opacity:1;" d="M 118.90625 16.511719 C 118.90625 15.375 119.128906 14.378906 119.566406 13.519531 C 120.015625 12.660156 120.625 12 121.390625 11.535156 C 122.160156 11.074219 123.015625 10.84375 123.957031 10.84375 C 124.765625 10.84375 125.472656 11 126.074219 11.320312 C 126.6875 11.636719 127.160156 12.050781 127.488281 12.566406 L 127.488281 11 L 131 11 L 131 22.058594 L 127.488281 22.058594 L 127.488281 20.496094 C 127.148438 21.011719 126.667969 21.425781 126.050781 21.742188 C 125.449219 22.058594 124.746094 22.21875 123.9375 22.21875 C 123.007812 22.21875 122.160156 21.988281 121.390625 21.523438 C 120.625 21.050781 120.015625 20.382812 119.566406 19.523438 C 119.128906 18.652344 118.90625 17.648438 118.90625 16.511719 Z M 127.488281 16.53125 C 127.488281 15.683594 127.242188 15.019531 126.75 14.53125 C 126.269531 14.039062 125.683594 13.796875 124.984375 13.796875 C 124.285156 13.796875 123.691406 14.039062 123.199219 14.53125 C 122.71875 15.003906 122.480469 15.664062 122.480469 16.511719 C 122.480469 17.355469 122.71875 18.03125 123.199219 18.53125 C 123.691406 19.023438 124.285156 19.265625 124.984375 19.265625 C 125.683594 19.265625 126.269531 19.023438 126.75 18.53125 C 127.242188 18.042969 127.488281 17.375 127.488281 16.53125 Z M 127.488281 16.53125 "/>
</g>
</svg>
