<?xml version="1.0" encoding="UTF-8"?>
<svg xmlns="http://www.w3.org/2000/svg" xmlns:xlink="http://www.w3.org/1999/xlink" width="30px" height="30px" viewBox="0 0 30 30" version="1.1">
<g id="surface1">
<path style=" stroke:none;fill-rule:nonzero;fill:rgb(100%,100%,100%);fill-opacity:1;" d="M 15 0 C 6.71875 0 0 6.71875 0 15 C 0 23.28125 6.71875 30 15 30 C 23.28125 30 30 23.28125 30 15 C 30 6.71875 23.285156 0 15 0 Z M 7.402344 15.503906 L 7.464844 15.402344 L 11.367188 9.296875 C 11.425781 9.210938 11.558594 9.21875 11.601562 9.316406 C 12.253906 10.777344 12.816406 12.59375 12.550781 13.726562 C 12.441406 14.191406 12.132812 14.820312 11.785156 15.402344 C 11.738281 15.484375 11.691406 15.570312 11.636719 15.652344 C 11.613281 15.6875 11.570312 15.707031 11.527344 15.707031 L 7.515625 15.707031 C 7.40625 15.707031 7.34375 15.589844 7.402344 15.503906 Z M 24.792969 17.605469 C 24.792969 17.660156 24.757812 17.710938 24.710938 17.730469 C 24.40625 17.859375 23.371094 18.335938 22.945312 18.933594 C 21.847656 20.460938 21.007812 22.644531 19.132812 22.644531 L 11.316406 22.644531 C 8.542969 22.644531 6.300781 20.390625 6.300781 17.609375 L 6.300781 17.519531 C 6.300781 17.449219 6.359375 17.386719 6.433594 17.386719 L 10.789062 17.386719 C 10.878906 17.386719 10.941406 17.464844 10.933594 17.554688 C 10.902344 17.835938 10.957031 18.125 11.089844 18.390625 C 11.347656 18.914062 11.886719 19.242188 12.464844 19.242188 L 14.621094 19.242188 L 14.621094 17.558594 L 12.488281 17.558594 C 12.382812 17.558594 12.316406 17.433594 12.378906 17.34375 C 12.402344 17.308594 12.425781 17.269531 12.457031 17.230469 C 12.65625 16.941406 12.945312 16.496094 13.234375 15.988281 C 13.429688 15.648438 13.617188 15.28125 13.769531 14.914062 C 13.800781 14.851562 13.824219 14.78125 13.851562 14.714844 C 13.894531 14.597656 13.933594 14.488281 13.964844 14.378906 C 13.996094 14.285156 14.023438 14.191406 14.046875 14.101562 C 14.117188 13.789062 14.148438 13.457031 14.148438 13.117188 C 14.148438 12.980469 14.140625 12.839844 14.128906 12.707031 C 14.125 12.5625 14.105469 12.414062 14.089844 12.265625 C 14.074219 12.136719 14.050781 12.007812 14.027344 11.878906 C 13.996094 11.683594 13.953125 11.488281 13.90625 11.292969 L 13.886719 11.21875 C 13.851562 11.082031 13.816406 10.957031 13.777344 10.820312 C 13.652344 10.402344 13.515625 9.988281 13.363281 9.605469 C 13.3125 9.453125 13.25 9.304688 13.1875 9.160156 C 13.097656 8.941406 13.003906 8.738281 12.921875 8.550781 C 12.875 8.464844 12.839844 8.386719 12.804688 8.304688 C 12.761719 8.214844 12.71875 8.125 12.675781 8.035156 C 12.644531 7.972656 12.609375 7.90625 12.585938 7.847656 L 12.320312 7.363281 C 12.285156 7.296875 12.34375 7.214844 12.417969 7.234375 L 14.066406 7.683594 L 14.074219 7.683594 C 14.074219 7.683594 14.074219 7.683594 14.078125 7.683594 L 14.296875 7.746094 L 14.535156 7.8125 L 14.621094 7.835938 L 14.621094 6.859375 C 14.621094 6.382812 15 6 15.472656 6 C 15.703125 6 15.917969 6.097656 16.066406 6.253906 C 16.222656 6.40625 16.316406 6.621094 16.316406 6.859375 L 16.316406 8.3125 L 16.492188 8.359375 C 16.507812 8.367188 16.519531 8.371094 16.53125 8.382812 C 16.574219 8.410156 16.636719 8.460938 16.714844 8.519531 C 16.777344 8.566406 16.84375 8.628906 16.921875 8.691406 C 17.082031 8.820312 17.273438 8.984375 17.480469 9.175781 C 17.535156 9.222656 17.589844 9.269531 17.640625 9.320312 C 17.90625 9.570312 18.207031 9.859375 18.496094 10.183594 C 18.574219 10.277344 18.652344 10.367188 18.734375 10.46875 C 18.8125 10.566406 18.898438 10.660156 18.972656 10.757812 C 19.070312 10.886719 19.171875 11.023438 19.265625 11.164062 C 19.308594 11.230469 19.359375 11.296875 19.398438 11.363281 C 19.519531 11.539062 19.621094 11.722656 19.71875 11.90625 C 19.761719 11.992188 19.804688 12.085938 19.839844 12.175781 C 19.949219 12.421875 20.035156 12.667969 20.089844 12.921875 C 20.109375 12.976562 20.121094 13.03125 20.128906 13.085938 L 20.128906 13.097656 C 20.144531 13.171875 20.152344 13.246094 20.15625 13.328125 C 20.179688 13.585938 20.167969 13.84375 20.113281 14.101562 C 20.089844 14.207031 20.0625 14.308594 20.023438 14.421875 C 19.984375 14.527344 19.949219 14.632812 19.902344 14.738281 C 19.808594 14.953125 19.699219 15.167969 19.570312 15.367188 C 19.53125 15.441406 19.480469 15.519531 19.429688 15.59375 C 19.378906 15.671875 19.320312 15.746094 19.273438 15.820312 C 19.203125 15.910156 19.132812 16.007812 19.054688 16.09375 C 18.988281 16.183594 18.925781 16.273438 18.847656 16.355469 C 18.746094 16.480469 18.648438 16.59375 18.542969 16.703125 C 18.484375 16.777344 18.417969 16.851562 18.347656 16.917969 C 18.28125 16.992188 18.214844 17.058594 18.152344 17.117188 C 18.046875 17.222656 17.964844 17.300781 17.890625 17.371094 L 17.722656 17.523438 C 17.695312 17.546875 17.664062 17.558594 17.632812 17.558594 L 16.316406 17.558594 L 16.316406 19.242188 L 17.96875 19.242188 C 18.339844 19.242188 18.691406 19.113281 18.976562 18.871094 C 19.070312 18.785156 19.492188 18.421875 19.996094 17.867188 C 20.011719 17.847656 20.035156 17.835938 20.058594 17.828125 L 24.621094 16.507812 C 24.707031 16.484375 24.792969 16.546875 24.792969 16.636719 Z M 24.792969 17.605469 "/>
</g>
</svg>
